<svg width="13" height="24" viewBox="0 0 13 24" fill="none" xmlns="http://www.w3.org/2000/svg">
<path d="M10.6087 23.8199C10.8814 23.8277 11.1492 23.7255 11.3749 23.5275C11.6006 23.3296 11.773 23.0455 11.868 22.7152C11.963 22.3848 11.976 22.0245 11.9051 21.6841C11.8342 21.3438 11.683 21.0406 11.4726 20.8164L3.44118 11.9282L11.4726 3.04319C11.6182 2.90495 11.7401 2.72944 11.8307 2.52749C11.9214 2.32555 11.9788 2.10154 11.9993 1.86962C12.0198 1.63769 12.0031 1.40284 11.9501 1.17967C11.8971 0.956493 11.809 0.749792 11.6914 0.572636C11.5737 0.395479 11.429 0.251776 11.2663 0.150217C11.1035 0.0486602 10.9264 -0.00838098 10.7458 -0.0173799C10.5652 -0.0263807 10.3852 0.0127467 10.2169 0.0978068C10.0486 0.182867 9.89573 0.311891 9.76784 0.476808L0.572647 10.6401C0.428248 10.7993 0.312294 10.9968 0.232784 11.2195C0.153275 11.4422 0.112101 11.6846 0.112101 11.9298C0.112101 12.175 0.153275 12.4174 0.232784 12.6401C0.312294 12.8628 0.428247 13.0606 0.572647 13.2198L9.76784 23.3928C10.0001 23.6593 10.2981 23.8109 10.6087 23.8203L10.6087 23.8199Z" fill="#E62F43"/>
</svg>
