<svg width="43" height="44" viewBox="0 0 43 44" fill="none" xmlns="http://www.w3.org/2000/svg">
<path d="M40.763 4.57094C40.763 4.12305 40.3152 3.67507 39.8672 3.67507H31.3568V0.987658C31.3568 0.450158 30.9984 0.0917969 30.4609 0.0917969C29.9234 0.0917969 29.5651 0.450158 29.5651 0.987658V10.8418C29.5651 11.3793 29.9234 11.7377 30.4609 11.7377C30.9984 11.7377 31.3568 11.3793 31.3568 10.8418V8.33344C32.4318 8.6918 33.1485 9.67719 33.1485 10.8418C33.1485 12.3648 31.9839 13.5294 30.4609 13.5294C28.938 13.5294 27.7734 12.3648 27.7734 10.8418C27.7734 10.2147 28.0421 9.58766 28.4005 9.05007C28.7588 8.69171 28.6692 8.15421 28.3109 7.79594C27.9526 7.43757 27.4151 7.52719 27.0568 7.88546C26.3402 8.6918 25.9818 9.76671 25.9818 10.8417C25.9818 13.3501 27.9526 15.3209 30.4609 15.3209C32.9693 15.3209 34.9401 13.3501 34.9401 10.8417C34.9401 8.69171 33.4172 6.89999 31.3568 6.4521V5.4668H38.9713L39.4192 16.2168H3.58594L4.03383 5.4668H9.8568C10.3943 5.4668 10.7527 5.10844 10.7527 4.57094C10.7527 4.03344 10.3944 3.67507 9.8568 3.67507H3.13805C2.69016 3.67507 2.24219 4.03344 2.24219 4.57094L0.898438 38.1647C0.898438 40.8523 3.13805 43.0918 5.82555 43.0918H37.1797C38.5234 43.0918 39.688 42.5543 40.6734 41.6584C41.5693 40.7626 42.1068 39.5084 42.1068 38.1647L40.763 4.57094ZM39.4193 40.4044C38.7922 41.0315 38.0755 41.3002 37.1797 41.3002H5.82555C4.12352 41.3002 2.69016 39.8668 2.69016 38.1648L3.49649 18.0085H39.5089L40.3152 38.1648C40.3152 38.971 39.9567 39.7773 39.4193 40.4044Z" fill="#E62F43"/>
<path d="M12.5416 11.7377C13.0791 11.7377 13.4375 11.3794 13.4375 10.8418V8.33344C14.5124 8.6918 15.2292 9.67719 15.2292 10.8418C15.2292 12.3648 14.0646 13.5294 12.5416 13.5294C11.0187 13.5294 9.85405 12.3647 9.85405 10.8418C9.85405 10.2147 10.1228 9.58766 10.4812 9.05007C10.8395 8.69171 10.7499 8.15421 10.3916 7.79594C10.0333 7.43757 9.49578 7.52719 9.1375 7.88546C8.42086 8.6918 8.0625 9.76671 8.0625 10.8417C8.0625 13.3501 10.0333 15.3209 12.5416 15.3209C15.05 15.3209 17.0208 13.3501 17.0208 10.8417C17.0208 8.69171 15.4979 6.89999 13.4375 6.4521V5.4668H27.7709C28.3084 5.4668 28.6667 5.10844 28.6667 4.57094C28.6667 4.03344 28.3084 3.67507 27.7709 3.67507H13.4375V0.987658C13.4375 0.450158 13.0791 0.0917969 12.5416 0.0917969C12.0041 0.0917969 11.6458 0.450158 11.6458 0.987658V10.8418C11.6458 11.3793 12.0041 11.7377 12.5416 11.7377Z" fill="#E62F43"/>
<path d="M29.5626 22.4883H27.7709C27.2334 22.4883 26.875 22.8466 26.875 23.3841C26.875 23.9216 27.2334 24.28 27.7709 24.28H28.6667V35.9259C28.6667 36.4634 29.0251 36.8217 29.5626 36.8217C30.1001 36.8217 30.4584 36.4634 30.4584 35.9259V23.3841C30.4584 22.8467 30.1002 22.4883 29.5626 22.4883Z" fill="#E62F43"/>
<path d="M18.5492 28.132L21.4159 23.9216C21.5951 23.6529 21.5951 23.2945 21.4159 23.0258C21.2367 22.6674 20.968 22.4883 20.6095 22.4883H13.4428C12.9053 22.4883 12.547 22.8466 12.547 23.3841C12.547 23.9216 12.9053 24.28 13.4428 24.28H18.9073L16.2198 28.2217C16.0405 28.4905 16.0405 28.8488 16.2198 29.1176C16.399 29.3863 16.6677 29.5655 17.026 29.5655C18.549 29.5655 19.7136 30.7301 19.7136 32.2531C19.7136 33.776 18.549 34.9406 17.026 34.9406H13.4427C12.9052 34.9406 12.5469 35.299 12.5469 35.8365C12.5469 36.374 12.9052 36.7324 13.4427 36.7324H17.026C19.5344 36.7324 21.5052 34.7616 21.5052 32.2532C21.5056 30.3717 20.2514 28.7591 18.5492 28.132Z" fill="#E62F43"/>
</svg>
