<svg width="42" height="43" viewBox="0 0 42 43" fill="none" xmlns="http://www.w3.org/2000/svg">
<path d="M21 42.5918C9.42025 42.5918 0 33.1715 0 21.5918C0 10.012 9.42025 0.591797 21 0.591797C32.5798 0.591797 42 10.012 42 21.5918C42 33.1715 32.5798 42.5918 21 42.5918ZM21 2.3418C10.3862 2.3418 1.75 10.978 1.75 21.5918C1.75 32.2055 10.3862 40.8418 21 40.8418C31.6138 40.8418 40.25 32.2055 40.25 21.5918C40.25 10.978 31.6138 2.3418 21 2.3418Z" fill="#E62F43"/>
<path d="M30.625 32.0918C30.401 32.0918 30.177 32.006 30.0055 31.8363L20.3805 22.2113C20.2177 22.0468 20.125 21.8245 20.125 21.5918V8.4668C20.125 7.9838 20.517 7.5918 21 7.5918C21.483 7.5918 21.875 7.9838 21.875 8.4668V21.2295L31.2445 30.599C31.5857 30.9403 31.5857 31.495 31.2445 31.8363C31.073 32.006 30.849 32.0918 30.625 32.0918Z" fill="#E62F43"/>
</svg>
