<svg width="14" height="12" viewBox="0 0 14 12" fill="none" xmlns="http://www.w3.org/2000/svg">
<path d="M5.19393 11.407C5.01549 11.407 4.84437 11.3494 4.71819 11.2469C4.59202 11.1444 4.52114 11.0053 4.52114 10.8604V9.22044H1.82996C1.47309 9.22044 1.13083 9.10525 0.878488 8.90022C0.626142 8.69519 0.484375 8.4171 0.484375 8.12715V1.56741C0.484375 0.960635 1.08989 0.474121 1.82996 0.474121H12.5947C12.9515 0.474121 13.2938 0.589307 13.5461 0.794338C13.7985 0.99937 13.9402 1.27745 13.9402 1.56741V8.12715C13.9402 8.4171 13.7985 8.69519 13.5461 8.90022C13.2938 9.10525 12.9515 9.22044 12.5947 9.22044H8.49062L6.00128 11.2485C5.86672 11.3523 5.69852 11.407 5.53033 11.407H5.19393Z" fill="#E62F43"/>
</svg>
