<svg width="15" height="8" viewBox="0 0 15 8" fill="none" xmlns="http://www.w3.org/2000/svg">
<path d="M14.4138 1.13643C14.4182 0.980579 14.3605 0.82753 14.2486 0.698564C14.1367 0.569597 13.9761 0.471121 13.7894 0.416826C13.6027 0.362531 13.399 0.355116 13.2067 0.395611C13.0143 0.436106 12.8429 0.522499 12.7162 0.642778L7.69246 5.23213L2.67047 0.642778C2.59234 0.559574 2.49313 0.489893 2.37899 0.438099C2.26485 0.386304 2.13823 0.353512 2.00715 0.341775C1.87606 0.330038 1.74332 0.339609 1.61718 0.36989C1.49103 0.400171 1.3742 0.450508 1.27407 0.51775C1.17394 0.584991 1.09272 0.667689 1.03531 0.760664C0.977911 0.853639 0.945671 0.954888 0.940584 1.05807C0.935497 1.16125 0.957612 1.26414 1.00569 1.3603C1.05377 1.45646 1.12669 1.54382 1.21991 1.6169L6.96436 6.87129C7.05434 6.95381 7.16601 7.02007 7.29188 7.0655C7.41774 7.11094 7.55474 7.13446 7.69335 7.13446C7.83195 7.13446 7.96895 7.11094 8.09481 7.0655C8.22068 7.02007 8.33247 6.95381 8.42244 6.87129L14.1724 1.6169C14.3231 1.48417 14.4087 1.31392 14.4141 1.13643L14.4138 1.13643Z" fill="white"/>
</svg>
