<svg width="46" height="25" viewBox="0 0 46 25" fill="none" xmlns="http://www.w3.org/2000/svg">
<path d="M44.6291 8.70298H41.4832V5.00238C41.4832 3.88427 40.6694 2.97459 39.669 2.97459H37.5366C37.3678 2.97459 37.205 3.00243 37.0499 3.05086V2.30441C37.0499 1.1863 36.2361 0.276611 35.2356 0.276611H31.7131C30.7127 0.276611 29.8988 1.1862 29.8988 2.30441V8.70298H15.7767V2.30441C15.7767 1.1863 14.9629 0.276611 13.9624 0.276611H10.4399C9.43954 0.276611 8.62564 1.1862 8.62564 2.30441V3.05086C8.47047 3.00243 8.30767 2.97459 8.13891 2.97459H6.00673C5.00635 2.97459 4.19244 3.88417 4.19244 5.00238V8.70298H1.04655C0.679903 8.70298 0.382812 9.03513 0.382812 9.44483V15.196C0.382812 15.6057 0.679903 15.9378 1.04655 15.9378H4.19244V19.6384C4.19244 20.7565 5.00626 21.6662 6.00673 21.6662H8.13899C8.30776 21.6662 8.47064 21.6383 8.62572 21.5899V22.3364C8.62572 23.4545 9.43954 24.3642 10.44 24.3642H13.9625C14.9629 24.3642 15.7768 23.4545 15.7768 22.3364V15.9378H29.899V22.3364C29.899 23.4545 30.7129 24.3642 31.7133 24.3642H35.2358C36.2362 24.3642 37.0501 23.4546 37.0501 22.3364V21.5899C37.2052 21.6384 37.368 21.6662 37.5368 21.6662H39.6691C40.6695 21.6662 41.4834 20.7566 41.4834 19.6384V15.9378H44.6292C44.9959 15.9378 45.293 15.6057 45.293 15.196V9.44483C45.2928 9.03513 44.9957 8.70298 44.6291 8.70298ZM4.19244 14.4541H1.71038V10.1867H4.19244V14.4541ZM8.62572 19.6385C8.62572 19.9384 8.4074 20.1825 8.13899 20.1825H6.00673C5.73842 20.1825 5.52001 19.9385 5.52001 19.6385V15.196V9.44483V5.00228C5.52001 4.70229 5.73842 4.45828 6.00673 4.45828H8.13899C8.4074 4.45828 8.62572 4.70229 8.62572 5.00228V19.6385ZM14.4491 9.44492V15.1961V22.3364C14.4491 22.6364 14.2307 22.8804 13.9624 22.8804H10.4399C10.1716 22.8804 9.9532 22.6364 9.9532 22.3364V19.6384V5.00228V2.30441C9.9532 2.00441 10.1716 1.7604 10.4399 1.7604H13.9624C14.2307 1.7604 14.4491 2.00441 14.4491 2.30441V9.44492ZM29.8988 14.4541H15.7767V10.1867H29.8988V14.4541ZM35.7224 5.00219V19.6384V22.3365C35.7224 22.6365 35.504 22.8805 35.2357 22.8805H31.7132C31.4449 22.8805 31.2265 22.6365 31.2265 22.3365V15.1961V9.44492V2.3045C31.2265 2.00451 31.4449 1.7605 31.7132 1.7605H35.2357C35.504 1.7605 35.7224 2.00451 35.7224 2.3045V5.00219ZM40.1558 9.44483V15.196V19.6385C40.1558 19.9385 39.9374 20.1825 39.669 20.1825H37.5367C37.2684 20.1825 37.05 19.9385 37.05 19.6385V5.00228C37.05 4.70229 37.2684 4.45828 37.5367 4.45828H39.669C39.9374 4.45828 40.1558 4.70229 40.1558 5.00228V9.44483ZM43.9652 14.4541H41.4832V10.1867H43.9652V14.4541Z" fill="#E62F43"/>
</svg>
