<svg width="18" height="10" viewBox="0 0 18 10" fill="none" xmlns="http://www.w3.org/2000/svg">
<path d="M18.2106 1.63612C18.2164 1.4413 18.1409 1.24999 17.9945 1.08878C17.8482 0.927573 17.6383 0.804477 17.3941 0.736609C17.1499 0.668741 16.8836 0.659471 16.632 0.71009C16.3805 0.760709 16.1564 0.868699 15.9907 1.01905L9.42115 6.75574L2.85394 1.01905C2.75176 0.915045 2.62203 0.827944 2.47277 0.7632C2.3235 0.698457 2.15793 0.657466 1.98651 0.642795C1.81509 0.628124 1.6415 0.640089 1.47655 0.677939C1.31159 0.71579 1.15881 0.778712 1.02787 0.862764C0.896931 0.946816 0.790714 1.05019 0.715651 1.16641C0.640587 1.28263 0.598425 1.40919 0.591774 1.53816C0.585121 1.66714 0.61404 1.79576 0.676912 1.91596C0.739782 2.03616 0.83515 2.14535 0.957045 2.2367L8.46902 8.8047C8.58668 8.90784 8.73272 8.99066 8.89731 9.04745C9.0619 9.10425 9.24105 9.13366 9.42231 9.13366C9.60356 9.13366 9.78271 9.10425 9.9473 9.04745C10.1119 8.99066 10.2581 8.90784 10.3757 8.8047L17.8949 2.2367C18.0919 2.07078 18.2039 1.85797 18.2109 1.63612H18.2106Z" fill="#E62F43"/>
</svg>
