<svg width="44" height="45" viewBox="0 0 44 45" fill="none" xmlns="http://www.w3.org/2000/svg">
<path d="M44 42.875H0V44.3417H44V42.875Z" fill="#E62F43"/>
<path d="M2.93646 41.4084H10.2698C10.6748 41.4084 11.0031 41.08 11.0031 40.675V27.475C11.0031 27.07 10.6748 26.7417 10.2698 26.7417H2.93646C2.53147 26.7417 2.20312 27.07 2.20312 27.475V40.675C2.20312 41.08 2.53147 41.4084 2.93646 41.4084ZM3.66979 28.2084H9.53646V39.9417H3.66979V28.2084Z" fill="#E62F43"/>
<path d="M23.4677 41.4086H30.801C31.206 41.4086 31.5344 41.0802 31.5344 40.6752V18.6752C31.5344 18.2702 31.206 17.9419 30.801 17.9419H23.4677C23.0627 17.9419 22.7344 18.2702 22.7344 18.6752V40.6752C22.7344 41.0802 23.0627 41.4086 23.4677 41.4086ZM24.201 19.4086H30.0677V39.9419H24.201V19.4086Z" fill="#E62F43"/>
<path d="M13.2021 41.4083H20.5354C20.9404 41.4083 21.2688 41.0799 21.2688 40.6749V9.87493C21.2688 9.46995 20.9404 9.1416 20.5354 9.1416H13.2021C12.7971 9.1416 12.4688 9.46995 12.4688 9.87493V40.6749C12.4688 41.0799 12.7971 41.4083 13.2021 41.4083ZM13.9354 10.6083H19.8021V39.9416H13.9354V10.6083Z" fill="#E62F43"/>
<path d="M33.7333 41.4085H41.0667C41.4717 41.4085 41.8 41.0801 41.8 40.6751V1.07513C41.8 0.670147 41.4717 0.341797 41.0667 0.341797H33.7333C33.3283 0.341797 33 0.670147 33 1.07513V40.6751C33 41.0801 33.3283 41.4085 33.7333 41.4085ZM34.4667 1.80846H40.3333V39.9418H34.4667V1.80846Z" fill="#E62F43"/>
</svg>
