<svg width="48" height="48" viewBox="0 0 48 48" fill="none" xmlns="http://www.w3.org/2000/svg">
<path d="M44 6H4.00003C1.79391 6 0 7.79391 0 10V38.0001C0 40.2061 1.79391 42 4.00003 42H44.0001C46.2061 42 48 40.2061 48 38V10C48 7.79391 46.2061 6 44 6ZM4.00003 7.99997H44.0001C44.1474 7.99997 44.2773 8.05369 44.4156 8.08406C40.9525 11.2535 29.4697 21.7583 25.4513 25.3789C25.1368 25.6621 24.63 26 24.0001 26C23.3702 26 22.8634 25.6621 22.5479 25.3779C18.5299 21.758 7.04634 11.2525 3.58388 8.08425C3.72244 8.05388 3.85256 7.99997 4.00003 7.99997ZM1.99997 38V10C1.99997 9.80409 2.05903 9.62634 2.11191 9.44728C4.76241 11.8732 12.7747 19.2029 17.9699 23.9272C12.7915 28.3754 4.77722 35.9737 2.10562 38.5212C2.05847 38.3512 1.99997 38.1848 1.99997 38ZM44 40H4.00003C3.84028 40 3.69825 39.9443 3.54909 39.9087C6.30975 37.277 14.3751 29.635 19.4624 25.2829C20.1256 25.8845 20.7314 26.433 21.209 26.8633C22.0332 27.6075 22.998 28 24 28C25.002 28 25.9668 27.6074 26.79 26.8643C27.2678 26.4338 27.874 25.8847 28.5376 25.2829C33.6252 29.6346 41.6894 37.2759 44.4509 39.9087C44.3018 39.9443 44.1599 40 44 40ZM46 38C46 38.1847 45.9415 38.3512 45.8945 38.5212C43.2218 35.9723 35.2085 28.3749 30.0302 23.9273C35.2256 19.203 43.2367 11.8739 45.8881 9.44709C45.941 9.62616 46 9.804 46 9.99994V38Z" fill="#E62F43"/>
</svg>
