<svg width="7" height="13" viewBox="0 0 7 13" fill="none" xmlns="http://www.w3.org/2000/svg">
<path d="M6.09855 12.3934C6.23163 12.3971 6.36232 12.3478 6.47244 12.2523C6.58256 12.1567 6.66665 12.0196 6.71301 11.8602C6.75938 11.7007 6.76571 11.5268 6.73113 11.3626C6.69655 11.1983 6.62278 11.052 6.52008 10.9438L2.60128 6.65406L6.52008 2.36585C6.59112 2.29913 6.65062 2.21442 6.69485 2.11696C6.73908 2.01949 6.76708 1.91138 6.7771 1.79945C6.78712 1.68751 6.77895 1.57417 6.75309 1.46646C6.72724 1.35874 6.68425 1.25898 6.62684 1.17348C6.56942 1.08798 6.4988 1.01863 6.41941 0.96961C6.34002 0.920595 6.25357 0.893066 6.16546 0.888722C6.07736 0.884378 5.9895 0.903262 5.90739 0.944315C5.82528 0.985368 5.75069 1.04764 5.68829 1.12723L1.20162 6.03235C1.13117 6.10918 1.07459 6.20454 1.03579 6.31201C0.996997 6.41949 0.976908 6.53646 0.976908 6.65482C0.976908 6.77318 0.996997 6.89015 1.03579 6.99763C1.07459 7.1051 1.13117 7.20056 1.20162 7.27739L5.68829 12.1872C5.80163 12.3159 5.947 12.389 6.09855 12.3935V12.3934Z" fill="#292B30"/>
</svg>
