<svg width="28" height="37" viewBox="0 0 28 37" fill="none" xmlns="http://www.w3.org/2000/svg">
<mask id="path-1-inside-1_640_25392" fill="white">
<path d="M14.571 7.75391H9.1482C8.78117 7.75391 8.48438 7.99953 8.48438 8.30328V16.6705C8.48438 16.9742 8.78117 17.2198 9.1482 17.2198H14.6593C16.3529 17.2198 17.6386 16.8083 18.4803 15.9973C19.2959 15.2108 19.7094 14.0173 19.7094 12.4517C19.7094 10.9283 19.2778 9.75641 18.4271 8.96891C17.5571 8.16266 16.26 7.75391 14.571 7.75391ZM17.4721 15.2811C16.8864 15.8464 15.9655 16.1202 14.6582 16.1202H9.81203V8.85172H14.5698C15.8828 8.85172 16.8207 9.12922 17.4359 9.69922C18.0623 10.2795 18.3806 11.2048 18.3806 12.4498C18.3818 13.7473 18.0759 14.6998 17.4721 15.2811Z"/>
</mask>
<path d="M14.571 7.75391H9.1482C8.78117 7.75391 8.48438 7.99953 8.48438 8.30328V16.6705C8.48438 16.9742 8.78117 17.2198 9.1482 17.2198H14.6593C16.3529 17.2198 17.6386 16.8083 18.4803 15.9973C19.2959 15.2108 19.7094 14.0173 19.7094 12.4517C19.7094 10.9283 19.2778 9.75641 18.4271 8.96891C17.5571 8.16266 16.26 7.75391 14.571 7.75391ZM17.4721 15.2811C16.8864 15.8464 15.9655 16.1202 14.6582 16.1202H9.81203V8.85172H14.5698C15.8828 8.85172 16.8207 9.12922 17.4359 9.69922C18.0623 10.2795 18.3806 11.2048 18.3806 12.4498C18.3818 13.7473 18.0759 14.6998 17.4721 15.2811Z" fill="white"/>
<path d="M18.4803 15.9973L19.5211 17.0775L19.5216 17.0771L18.4803 15.9973ZM18.4271 8.96891L17.4075 10.0691L17.4081 10.0697L18.4271 8.96891ZM9.81203 16.1202H8.31203V17.6202H9.81203V16.1202ZM9.81203 8.85172V7.35172H8.31203V8.85172H9.81203ZM17.4359 9.69922L16.4163 10.7995L16.4165 10.7996L17.4359 9.69922ZM18.3806 12.4498H16.8806L16.8806 12.4512L18.3806 12.4498ZM14.571 6.25391H9.1482V9.25391H14.571V6.25391ZM9.1482 6.25391C8.2309 6.25391 6.98438 6.91795 6.98438 8.30328H9.98438C9.98438 8.66721 9.80245 8.9317 9.635 9.07028C9.47102 9.20599 9.29375 9.25391 9.1482 9.25391V6.25391ZM6.98438 8.30328V16.6705H9.98438V8.30328H6.98438ZM6.98438 16.6705C6.98438 18.0558 8.2309 18.7198 9.1482 18.7198V15.7198C9.29375 15.7198 9.47102 15.7678 9.635 15.9035C9.80245 16.042 9.98438 16.3065 9.98438 16.6705H6.98438ZM9.1482 18.7198H14.6593V15.7198H9.1482V18.7198ZM14.6593 18.7198C16.5677 18.7198 18.2959 18.2579 19.5211 17.0775L17.4396 14.9171C16.9813 15.3586 16.1381 15.7198 14.6593 15.7198V18.7198ZM19.5216 17.0771C20.7283 15.9134 21.2094 14.2648 21.2094 12.4517H18.2094C18.2094 13.7699 17.8636 14.5082 17.4391 14.9176L19.5216 17.0771ZM21.2094 12.4517C21.2094 10.6482 20.6918 9.02127 19.446 7.86812L17.4081 10.0697C17.8638 10.4915 18.2094 11.2084 18.2094 12.4517H21.2094ZM19.4467 7.8687C18.201 6.7143 16.4784 6.25391 14.571 6.25391V9.25391C16.0416 9.25391 16.9132 9.61101 17.4075 10.0691L19.4467 7.8687ZM16.4304 14.2018C16.2534 14.3727 15.8036 14.6202 14.6582 14.6202V17.6202C16.1273 17.6202 17.5195 17.3201 18.5139 16.3603L16.4304 14.2018ZM14.6582 14.6202H9.81203V17.6202H14.6582V14.6202ZM11.312 16.1202V8.85172H8.31203V16.1202H11.312ZM9.81203 10.3517H14.5698V7.35172H9.81203V10.3517ZM14.5698 10.3517C15.7098 10.3517 16.1992 10.5982 16.4163 10.7995L18.4554 8.59898C17.4423 7.6602 16.0558 7.35172 14.5698 7.35172V10.3517ZM16.4165 10.7996C16.6192 10.9874 16.8806 11.43 16.8806 12.4498H19.8806C19.8806 10.9797 19.5054 9.57167 18.4552 8.59881L16.4165 10.7996ZM16.8806 12.4512C16.8816 13.5597 16.6142 14.0249 16.4318 14.2005L18.5124 16.3617C19.5376 15.3748 19.8819 13.935 19.8806 12.4485L16.8806 12.4512Z" fill="white" mask="url(#path-1-inside-1_640_25392)"/>
<mask id="path-3-inside-2_640_25392" fill="white">
<path d="M15.6535 0.712891H0.796641C0.429609 0.712891 0.132812 0.958516 0.132812 1.26227V36.1776C0.132812 36.4813 0.429609 36.727 0.796641 36.727H9.15113C9.51816 36.727 9.81496 36.4804 9.81496 36.1776V24.2591H15.9174C19.7554 24.2591 22.7471 23.1895 24.81 21.081C26.8389 19.0073 27.8675 16.0157 27.8675 12.1898C27.8675 8.5307 26.8185 5.67789 24.75 3.71102C22.6599 1.72164 19.5991 0.712891 15.6535 0.712891ZM23.778 20.3891C21.9542 22.2538 19.3838 23.1604 15.9174 23.1604H9.15C8.78297 23.1604 8.48617 23.407 8.48617 23.7098V35.6282H1.46047V1.81258H15.6535C19.1969 1.81258 21.9213 2.69383 23.7497 4.43289C25.6018 6.19352 26.5398 8.80352 26.5398 12.1907C26.5398 15.7579 25.6109 18.516 23.778 20.3891Z"/>
</mask>
<path d="M15.6535 0.712891H0.796641C0.429609 0.712891 0.132812 0.958516 0.132812 1.26227V36.1776C0.132812 36.4813 0.429609 36.727 0.796641 36.727H9.15113C9.51816 36.727 9.81496 36.4804 9.81496 36.1776V24.2591H15.9174C19.7554 24.2591 22.7471 23.1895 24.81 21.081C26.8389 19.0073 27.8675 16.0157 27.8675 12.1898C27.8675 8.5307 26.8185 5.67789 24.75 3.71102C22.6599 1.72164 19.5991 0.712891 15.6535 0.712891ZM23.778 20.3891C21.9542 22.2538 19.3838 23.1604 15.9174 23.1604H9.15C8.78297 23.1604 8.48617 23.407 8.48617 23.7098V35.6282H1.46047V1.81258H15.6535C19.1969 1.81258 21.9213 2.69383 23.7497 4.43289C25.6018 6.19352 26.5398 8.80352 26.5398 12.1907C26.5398 15.7579 25.6109 18.516 23.778 20.3891Z" fill="white"/>
<path d="M9.81496 24.2591V22.7591H8.31496V24.2591H9.81496ZM24.81 21.081L25.8822 22.13L25.8822 22.13L24.81 21.081ZM24.75 3.71102L23.7158 4.79752L23.7163 4.79805L24.75 3.71102ZM23.778 20.3891L22.7059 19.3401L22.7057 19.3403L23.778 20.3891ZM8.48617 35.6282V37.1282H9.98617V35.6282H8.48617ZM1.46047 35.6282H-0.0395313V37.1282H1.46047V35.6282ZM1.46047 1.81258V0.312578H-0.0395313V1.81258H1.46047ZM23.7497 4.43289L22.7159 5.51976L22.7162 5.52007L23.7497 4.43289ZM15.6535 -0.787109H0.796641V2.21289H15.6535V-0.787109ZM0.796641 -0.787109C-0.120662 -0.787109 -1.36719 -0.123061 -1.36719 1.26227H1.63281C1.63281 1.62619 1.45089 1.89069 1.28344 2.02926C1.11945 2.16498 0.942186 2.21289 0.796641 2.21289V-0.787109ZM-1.36719 1.26227V36.1776H1.63281V1.26227H-1.36719ZM-1.36719 36.1776C-1.36719 37.5629 -0.120678 38.227 0.796641 38.227V35.227C0.942193 35.227 1.11946 35.2749 1.28345 35.4106C1.45089 35.5492 1.63281 35.8137 1.63281 36.1776H-1.36719ZM0.796641 38.227H9.15113V35.227H0.796641V38.227ZM9.15113 38.227C10.0702 38.227 11.315 37.5605 11.315 36.1776H8.31496C8.31496 35.8123 8.4976 35.5484 8.66366 35.4108C8.82689 35.2755 9.00412 35.227 9.15113 35.227V38.227ZM11.315 36.1776V24.2591H8.31496V36.1776H11.315ZM9.81496 25.7591H15.9174V22.7591H9.81496V25.7591ZM15.9174 25.7591C20.0321 25.7591 23.4593 24.6064 25.8822 22.13L23.7378 20.032C22.035 21.7725 19.4787 22.7591 15.9174 22.7591V25.7591ZM25.8822 22.13C28.2641 19.6954 29.3675 16.2786 29.3675 12.1898H26.3675C26.3675 15.7528 25.4136 18.3191 23.7378 20.032L25.8822 22.13ZM29.3675 12.1898C29.3675 8.24205 28.2282 4.94849 25.7836 2.62399L23.7163 4.79805C25.4087 6.40729 26.3675 8.81936 26.3675 12.1898H29.3675ZM25.7841 2.62451C23.3261 0.284825 19.8403 -0.787109 15.6535 -0.787109V2.21289C19.3578 2.21289 21.9938 3.15846 23.7158 4.79752L25.7841 2.62451ZM22.7057 19.3403C21.2476 20.8311 19.1178 21.6604 15.9174 21.6604V24.6604C19.6499 24.6604 22.6608 23.6766 24.8503 21.438L22.7057 19.3403ZM15.9174 21.6604H9.15V24.6604H15.9174V21.6604ZM9.15 21.6604C8.2309 21.6604 6.98617 22.3269 6.98617 23.7098H9.98617C9.98617 24.075 9.80353 24.339 9.63747 24.4766C9.47424 24.6118 9.297 24.6604 9.15 24.6604V21.6604ZM6.98617 23.7098V35.6282H9.98617V23.7098H6.98617ZM8.48617 34.1282H1.46047V37.1282H8.48617V34.1282ZM2.96047 35.6282V1.81258H-0.0395313V35.6282H2.96047ZM1.46047 3.31258H15.6535V0.312578H1.46047V3.31258ZM15.6535 3.31258C18.9689 3.31258 21.2624 4.13724 22.7159 5.51976L24.7835 3.34602C22.5803 1.25042 19.4249 0.312578 15.6535 0.312578V3.31258ZM22.7162 5.52007C24.1823 6.91367 25.0398 9.07445 25.0398 12.1907H28.0398C28.0398 8.53258 27.0214 5.47336 24.7831 3.34571L22.7162 5.52007ZM25.0398 12.1907C25.0398 15.5106 24.1775 17.8361 22.7059 19.3401L24.8501 21.4382C27.0442 19.1959 28.0398 16.0052 28.0398 12.1907H25.0398Z" fill="white" mask="url(#path-3-inside-2_640_25392)"/>
</svg>
