<svg width="42" height="35" viewBox="0 0 42 35" fill="none" xmlns="http://www.w3.org/2000/svg">
<path d="M14.1142 33.8901C14.114 34.3323 14.4725 34.691 14.9147 34.6911C15.0665 34.6911 15.2151 34.648 15.3433 34.5669L27.0202 27.175H37.3086C39.5403 27.1726 41.3489 25.3642 41.3515 23.1324V4.99235C41.3489 2.76068 39.5403 0.952197 37.3086 0.949707H4.39412C2.16253 0.95228 0.354052 2.76076 0.351562 4.99235V23.1323C0.354135 25.3639 2.16253 27.1723 4.39412 27.1749H14.1157L14.1142 33.8901ZM4.39412 25.5735C3.0466 25.5719 1.95463 24.4799 1.95313 23.1324V4.99235C1.95471 3.64483 3.0466 2.55285 4.39412 2.55136H37.3086C38.6562 2.55285 39.7482 3.64475 39.7499 4.99235V23.1323C39.7483 24.4798 38.6564 25.5718 37.3089 25.5733H26.7881C26.6365 25.5733 26.4879 25.6164 26.3598 25.6975L15.7162 32.4352L15.7179 26.3744C15.7179 25.9322 15.3594 25.5736 14.9172 25.5736L4.39412 25.5735Z" fill="#E62F43"/>
</svg>
