<svg width="34" height="36" viewBox="0 0 34 36" fill="none" xmlns="http://www.w3.org/2000/svg">
<path d="M6.23383 18.6365C4.37315 18.6365 2.85938 20.1847 2.85938 22.0876C2.85938 23.9906 4.37315 25.5388 6.23383 25.5388C8.0945 25.5388 9.60828 23.9906 9.60828 22.0876C9.60828 20.1847 8.0945 18.6365 6.23383 18.6365ZM6.23383 24.1583C5.11742 24.1583 4.20916 23.2294 4.20916 22.0876C4.20916 20.9458 5.11742 20.0169 6.23383 20.0169C7.35023 20.0169 8.2585 20.9458 8.2585 22.0876C8.2585 23.2294 7.35023 24.1583 6.23383 24.1583Z" fill="#E62F43"/>
<path d="M6.23026 15.8752C2.88105 15.8752 0.15625 18.662 0.15625 22.0873C0.15625 27.7858 5.47675 34.6531 5.70324 34.9426C5.98062 35.2973 6.50407 35.2827 6.76707 34.9297C6.99316 34.6262 12.3043 27.4355 12.3043 22.0873C12.3043 18.662 9.57947 15.8752 6.23026 15.8752ZM6.21886 33.3476C4.8794 31.461 1.50603 26.2917 1.50603 22.0873C1.50603 19.4232 3.62532 17.2557 6.23026 17.2557C8.8352 17.2557 10.9545 19.4232 10.9545 22.0873C10.9545 26.0335 7.55116 31.3986 6.21886 33.3476Z" fill="#E62F43"/>
<path d="M31.202 6.9028C31.202 4.99984 29.6882 3.45166 27.8276 3.45166C25.9669 3.45166 24.4531 4.99984 24.4531 6.9028C24.4531 8.80576 25.9669 10.3539 27.8276 10.3539C29.6882 10.3539 31.202 8.80576 31.202 6.9028ZM25.8029 6.9028C25.8029 5.76103 26.7112 4.83212 27.8276 4.83212C28.944 4.83212 29.8522 5.76103 29.8522 6.9028C29.8522 8.04458 28.944 8.97349 27.8276 8.97349C26.7112 8.97349 25.8029 8.04458 25.8029 6.9028Z" fill="#E62F43"/>
<path d="M28.3608 19.745C28.587 19.4414 33.898 12.2507 33.898 6.90249C33.898 3.47716 31.1732 0.69043 27.824 0.69043C24.4748 0.69043 21.75 3.47716 21.75 6.90249C21.75 12.6009 27.0705 19.4682 27.297 19.7578C27.5744 20.1126 28.0979 20.0979 28.3608 19.745ZM27.824 2.07089C30.429 2.07089 32.5482 4.23834 32.5482 6.90249C32.5482 10.8487 29.1448 16.2138 27.8125 18.1627C26.4731 16.2761 23.0998 11.1069 23.0998 6.90249C23.0998 4.23834 25.2191 2.07089 27.824 2.07089Z" fill="#E62F43"/>
<path d="M29.509 26.229H18.0359C16.3613 26.229 14.9989 24.8356 14.9989 23.123C14.9989 21.4103 16.3613 20.0169 18.0359 20.0169H25.1223C25.4949 20.0169 25.7971 19.7078 25.7971 19.3267C25.7971 18.9456 25.4949 18.6365 25.1223 18.6365H18.0359C15.617 18.6365 13.6491 20.6491 13.6491 23.123C13.6491 25.5968 15.617 27.6094 18.0359 27.6094H29.509C31.1836 27.6094 32.5461 29.0028 32.5461 30.7155C32.5461 32.4281 31.1836 33.8215 29.509 33.8215H8.92489C8.55215 33.8215 8.25 34.1306 8.25 34.5117C8.25 34.8929 8.55215 35.202 8.92489 35.202H29.509C31.9279 35.202 33.8958 33.1893 33.8958 30.7155C33.8958 28.2416 31.9279 26.229 29.509 26.229Z" fill="#E62F43"/>
</svg>
