<svg width="19" height="13" viewBox="0 0 19 13" fill="none" xmlns="http://www.w3.org/2000/svg">
<path d="M9.54637 4.0237C8.90672 4.0237 8.29327 4.27779 7.84097 4.73009C7.38867 5.18239 7.13457 5.79584 7.13457 6.43549C7.13457 7.07514 7.38867 7.68859 7.84097 8.14089C8.29327 8.59318 8.90672 8.84728 9.54637 8.84728C10.186 8.84728 10.7995 8.59318 11.2518 8.14089C11.7041 7.68859 11.9582 7.07514 11.9582 6.43549C11.9582 5.79584 11.7041 5.18239 11.2518 4.73009C10.7995 4.27779 10.186 4.0237 9.54637 4.0237ZM9.54637 10.4551C8.48029 10.4551 7.45787 10.0316 6.70404 9.27782C5.95021 8.52398 5.52671 7.50157 5.52671 6.43549C5.52671 5.36941 5.95021 4.347 6.70404 3.59316C7.45787 2.83933 8.48029 2.41583 9.54637 2.41583C10.6124 2.41583 11.6349 2.83933 12.3887 3.59316C13.1425 4.347 13.566 5.36941 13.566 6.43549C13.566 7.50157 13.1425 8.52398 12.3887 9.27782C11.6349 10.0316 10.6124 10.4551 9.54637 10.4551ZM9.54637 0.406006C5.52671 0.406006 2.09393 2.90623 0.703125 6.43549C2.09393 9.96475 5.52671 12.465 9.54637 12.465C13.566 12.465 16.9988 9.96475 18.3896 6.43549C16.9988 2.90623 13.566 0.406006 9.54637 0.406006Z" fill="#E62F43"/>
</svg>
