<svg width="46" height="45" viewBox="0 0 46 45" fill="none" xmlns="http://www.w3.org/2000/svg">
<path d="M45.1406 43.4905H38.7839C38.5289 42.452 37.7205 41.6138 36.6453 41.3451L35.1166 40.9627L37.0488 31.5915C37.4196 29.791 36.3979 27.9575 34.6291 27.3462C30.3059 25.8459 31.7846 26.5101 27.8078 25.6019C29.1916 24.7607 31.0979 23.5571 31.6928 22.9622C32.3895 22.2644 34.51 20.141 34.51 18.1101C34.51 17.5376 34.337 16.9068 33.9953 16.2293L45.0961 5.12853C45.5782 4.64648 45.8437 4.00544 45.8437 3.32363C45.8437 1.06391 43.0898 -0.0848373 41.4864 1.51872C41.2117 1.79328 41.2117 2.23842 41.4864 2.51297C41.7609 2.78752 42.2061 2.78752 42.4806 2.51297C43.2011 1.79266 44.4375 2.30899 44.4375 3.32354C44.4375 3.62973 44.3183 3.91756 44.1018 4.13411L31.1649 17.0711C30.7206 17.5153 31.0413 18.2714 31.6621 18.2714C32.0434 18.2714 32.1541 18.0706 32.9298 17.2949C33.0435 17.5965 33.1038 17.8721 33.1038 18.1101C33.1038 19.0716 32.2943 20.3698 30.6943 21.972C30.125 22.5414 27.5389 24.1426 25.8109 25.1581L23.4323 24.8608C23.0468 24.8122 22.6957 25.0858 22.6475 25.4712C22.5993 25.8565 22.8727 26.2079 23.2579 26.256L25.8328 26.5779C31.8125 28.0442 29.4596 27.0562 34.1798 28.6788C35.2616 29.0552 35.903 30.1855 35.6719 31.3077L34.7778 35.6441H32.4769L32.8481 32.3903C32.8927 31.9987 32.6063 31.6461 32.213 31.6104C23.8218 30.8492 24.6085 31.7734 21.7291 30.771C21.5403 30.7073 21.2538 30.5959 21.0529 30.4919C19.334 29.6022 18.9644 27.0255 19.5075 25.5769C20.1733 25.1057 20.8367 24.5604 21.4797 23.9549C21.7624 23.6887 21.7758 23.2437 21.5096 22.961C21.2433 22.6784 20.7985 22.665 20.5157 22.9311C19.7906 23.6138 18.8843 24.3154 18.8269 24.3287C18.6499 24.3699 18.6007 24.428 17.9011 24.8876C16.153 26.0362 16.4921 25.813 7.42626 33.4333L1.93535 37.0967C0.974055 37.738 0.594302 38.9385 1.01185 40.0161C2.15005 42.9532 2.14838 43.0416 2.4653 43.4905H1.54944C1.16116 43.4905 0.846358 43.8053 0.846358 44.1936C0.846358 44.5819 1.16116 44.8967 1.54944 44.8967H45.1406C45.5289 44.8967 45.8437 44.5819 45.8437 44.1936C45.8437 43.8053 45.5289 43.4905 45.1406 43.4905ZM17.8749 26.5981C17.7619 28.3762 18.4365 30.368 19.9062 31.4305C17.2917 32.6471 13.7835 34.043 9.48014 36.2624L8.68539 34.2118C15.6512 28.3556 16.8154 27.3404 17.8749 26.5981ZM2.71577 38.2665L7.50931 35.0683L8.24447 36.9652L4.98111 39.0435C4.74171 39.196 4.61744 39.4775 4.66612 39.7571L5.31481 43.4849C4.49879 43.5439 3.70334 43.0701 3.39266 42.2684L2.32301 39.508C2.14539 39.0497 2.30693 38.5392 2.71577 38.2665ZM6.13179 39.9778C9.32871 37.9419 9.80698 37.429 17.779 33.9231C19.2164 33.2911 20.4703 32.7387 21.5601 32.1955C24.4469 33.1122 24.241 32.3384 31.3691 32.9476C30.3458 41.9157 30.6007 40.1706 30.1792 41.8565C30.0401 42.4129 30.0991 42.9856 30.3377 43.4905H6.74303L6.13179 39.9778ZM32.5528 43.4905C31.8763 43.4905 31.3789 42.855 31.5433 42.1977C31.994 40.3949 31.798 41.5916 32.3162 37.0504H34.4876L33.6033 41.3392C33.5272 41.7083 33.7556 42.0718 34.1213 42.1632L36.3042 42.7092C36.7425 42.8188 37.0959 43.1099 37.2926 43.4905H32.5528Z" fill="#E62F43"/>
<path d="M25.2754 7.87202C25.3752 9.25366 25.9416 10.5337 26.8842 11.5504C26.2542 14.1324 25.2814 16.5104 23.9884 18.623C23.7857 18.9543 23.8898 19.387 24.2211 19.5898C24.5542 19.7938 24.9863 19.6863 25.1878 19.3572C26.4436 17.3053 27.4138 15.0219 28.0786 12.5564C28.4309 12.785 28.8039 12.9768 29.1906 13.1295L29.5826 13.4232L28.5499 14.4559C28.1057 14.9 28.4264 15.6561 29.0471 15.6561C29.227 15.6561 29.407 15.5875 29.5443 15.4502C36.8501 8.14437 23.8297 21.1648 38.5579 6.43658C39.8833 5.11118 40.6133 3.34899 40.6133 1.47457C40.6133 1.08629 40.2985 0.771484 39.9102 0.771484C39.5219 0.771484 39.2071 1.08629 39.2071 1.47457C39.2071 2.97337 38.6235 4.38252 37.5637 5.44233L34.5105 8.49548C34.5105 6.86265 34.6307 5.93098 33.9175 4.67509C32.7087 2.54484 29.972 1.76037 27.763 2.87177C26.7051 1.0637 23.9509 1.31075 23.2521 3.28905L22.7805 4.62869C22.2007 6.26934 23.4993 7.9715 25.2754 7.87202ZM32.4688 5.02971C31.8079 5.95145 30.7405 6.4923 29.5978 6.50777C28.5716 6.5221 28.6407 7.91561 29.5474 7.91561C30.866 7.91561 32.1411 7.40121 33.0765 6.47842C33.1139 6.75227 33.1042 6.57808 33.1042 9.90147L30.8766 12.129C29.9597 12.004 29.1301 11.6342 28.4612 11.1014L29.0529 9.63289C29.2115 9.23916 28.9879 8.78356 28.5562 8.68522C28.2253 8.60964 27.8792 8.78251 27.7484 9.10733L27.41 9.94752C26.9268 9.20234 26.6638 8.3408 26.6638 7.4303C26.6638 7.34084 26.6539 7.365 26.7135 7.31667C27.0879 7.01337 27.3447 6.6229 27.4837 6.23084C27.955 4.89331 28.0486 4.69285 28.0838 4.30606C29.4934 3.3881 31.4291 3.6768 32.4688 5.02971ZM24.1065 5.09624L24.578 3.75651C24.7314 3.32254 25.1521 3.05 25.6034 3.05C26.3416 3.05 26.8684 3.74588 26.6292 4.42427C26.1711 5.7248 26.1408 6.06263 25.691 6.32013C24.7923 6.82715 23.7921 5.98652 24.1065 5.09624Z" fill="#E62F43"/>
<path d="M22.4672 21.9225C22.7692 22.1653 23.2143 22.1153 23.4581 21.812C23.4939 21.7675 23.5297 21.7229 23.5654 21.6776C23.8059 21.3727 23.7537 20.9306 23.4488 20.6902C23.1439 20.4497 22.7018 20.5019 22.4614 20.8068C22.4284 20.8487 22.3953 20.8898 22.3573 20.9371C22.114 21.2397 22.1646 21.6792 22.4672 21.9225Z" fill="#E62F43"/>
</svg>
