<svg width="18" height="23" viewBox="0 0 18 23" xmlns="http://www.w3.org/2000/svg">
<path d="M13.1743 0.255859C13.225 0.255859 13.2757 0.255859 13.3293 0.255859C13.4536 1.79762 12.8673 2.94962 12.1546 3.78386C11.4554 4.61234 10.4979 5.41586 8.94934 5.29394C8.84603 3.77426 9.43334 2.7077 10.145 1.87538C10.805 1.0997 12.015 0.409459 13.1743 0.255859Z"/>
<path d="M17.8603 16.3029C17.8603 16.3182 17.8603 16.3317 17.8603 16.3461C17.4251 17.6689 16.8043 18.8027 16.0468 19.8549C15.3552 20.8101 14.5077 22.0955 12.9945 22.0955C11.687 22.0955 10.8184 21.2517 9.47834 21.2286C8.06078 21.2056 7.28122 21.9342 5.98513 22.1176C5.83687 22.1176 5.68861 22.1176 5.54322 22.1176C4.59148 21.9793 3.82339 21.2229 3.26382 20.5413C1.61382 18.5272 0.33878 15.9256 0.101562 12.5963C0.101562 12.2699 0.101562 11.9445 0.101562 11.6181C0.201997 9.23535 1.35556 7.29807 2.88887 6.35919C3.69808 5.85999 4.81052 5.43471 6.04921 5.62479C6.58008 5.70735 7.12243 5.88975 7.59782 6.07023C8.04835 6.24399 8.61174 6.55215 9.14548 6.53583C9.50704 6.52527 9.86669 6.33615 10.2311 6.20271C11.2986 5.81583 12.345 5.37231 13.7243 5.58063C15.382 5.83215 16.5585 6.57135 17.2855 7.71183C15.8832 8.60751 14.7746 9.95727 14.964 12.2622C15.1323 14.356 16.3452 15.5809 17.8603 16.3029Z"/>
</svg>
