<svg width="6" height="9" viewBox="0 0 6 9" xmlns="http://www.w3.org/2000/svg">
<path d="M3.45193 4.49831L0.459151 7.49122C0.376744 7.57343 0.331411 7.68335 0.331411 7.80055C0.331411 7.91782 0.376744 8.02767 0.459151 8.11002L0.721395 8.37213C0.803671 8.4546 0.913655 8.5 1.03086 8.5C1.14806 8.5 1.25791 8.4546 1.34026 8.37213L4.90364 4.80881C4.98631 4.72621 5.03157 4.61584 5.03125 4.4985C5.03157 4.38065 4.98637 4.27041 4.90364 4.18774L1.34357 0.627871C1.26123 0.545399 1.15138 0.5 1.03411 0.5C0.916907 0.5 0.807053 0.545399 0.724647 0.627871L0.462468 0.889984C0.291866 1.06059 0.291866 1.33831 0.462468 1.50885L3.45193 4.49831Z"/>
</svg>
