<svg width="8" height="14" viewBox="0 0 8 14" xmlns="http://www.w3.org/2000/svg">
<path d="M1.29952 0.153552C1.14366 0.149172 0.990616 0.206902 0.86165 0.318804C0.732683 0.430706 0.634207 0.591249 0.579912 0.777971C0.525617 0.964692 0.518202 1.16836 0.558697 1.36072C0.599192 1.55307 0.685585 1.72445 0.805864 1.85117L5.39522 6.87492L0.805864 11.8969C0.722661 11.975 0.65298 12.0742 0.601185 12.1884C0.549391 12.3025 0.516598 12.4291 0.504861 12.5602C0.493124 12.6913 0.502696 12.8241 0.532977 12.9502C0.563257 13.0763 0.613594 13.1932 0.680836 13.2933C0.748078 13.3934 0.830776 13.4747 0.923751 13.5321C1.01673 13.5895 1.11797 13.6217 1.22116 13.6268C1.32434 13.6319 1.42723 13.6098 1.52339 13.5617C1.61955 13.5136 1.70691 13.4407 1.77999 13.3475L7.03438 7.60302C7.11689 7.51305 7.18315 7.40137 7.22859 7.2755C7.27402 7.14964 7.29755 7.01264 7.29755 6.87404C7.29755 6.73543 7.27402 6.59843 7.22859 6.47257C7.18315 6.34671 7.11689 6.23492 7.03438 6.14494L1.77999 0.394963C1.64725 0.244315 1.477 0.158668 1.29952 0.153331V0.153552Z" />
</svg>
