<svg width="36" height="37" viewBox="0 0 36 37" xmlns="http://www.w3.org/2000/svg">
<path d="M15.1265 22.6049C14.8984 22.3721 14.6463 22.1559 14.3773 21.9621C14.1072 21.7675 13.7129 21.8067 13.4968 22.0498C13.2806 22.2928 13.3242 22.6475 13.5942 22.842C13.8069 22.9954 14.0064 23.1664 14.187 23.3506C14.3108 23.477 14.4836 23.5414 14.657 23.5414C14.8043 23.5414 14.9521 23.495 15.0712 23.4005C15.3306 23.1946 15.3553 22.8385 15.1265 22.6049Z" />
<path d="M28.6936 26.7969C27.2428 26.7969 26.0625 27.8589 26.0625 29.1643C26.0625 30.4697 27.2429 31.5317 28.6936 31.5317C30.1444 31.5317 31.3247 30.4696 31.3247 29.1643C31.3247 27.8589 30.1444 26.7969 28.6936 26.7969ZM28.6936 30.4043C27.9336 30.4043 27.3154 29.848 27.3154 29.1642C27.3154 28.4804 27.9336 27.9241 28.6936 27.9241C29.4535 27.9241 30.0718 28.4804 30.0718 29.1642C30.0718 29.848 29.4535 30.4043 28.6936 30.4043Z" />
<path d="M34.0372 32.8094H32.0549C33.2399 31.9186 33.9955 30.5797 33.9955 29.084C33.9955 27.0728 32.6505 25.2998 30.569 24.5669L25.2889 22.7077L33.129 6.24726C34.3767 6.06269 35.3319 5.08584 35.3319 3.9117V2.70921C35.3319 1.40379 34.1515 0.341797 32.7008 0.341797H31.3644C31.0184 0.341797 30.7379 0.594078 30.7379 0.905491C30.7379 1.21683 31.0184 1.46919 31.3644 1.46919H32.7008C33.4607 1.46919 34.079 2.0255 34.079 2.70928V3.91177C34.079 4.59443 33.4627 5.14997 32.7044 5.15172C32.7028 5.15172 32.7013 5.15187 32.6997 5.15187H30.9091C30.1228 5.15187 29.4146 5.57205 29.105 6.2223L21.8326 21.4908L13.8 18.6626C13.1165 18.4219 12.4108 18.2638 11.6994 18.1855L10.699 9.48416L13.0658 9.3422H13.0657C13.9357 9.2901 14.6173 8.63458 14.6173 7.84989C14.6173 7.02527 13.8717 6.35435 12.9552 6.35435H5.00319C4.08673 6.35435 3.34109 7.02527 3.34109 7.84989V8.32689C3.34109 8.73927 3.53301 9.13738 3.8677 9.41905C4.17566 9.67829 4.58466 9.82244 5.00421 9.82244C5.0407 9.82244 5.07719 9.82131 5.11369 9.81913L6.7933 9.71837L7.80994 18.5597C7.09837 18.7826 6.41391 19.09 5.77618 19.4816C3.41462 20.9321 2.00468 23.3338 2.00468 25.9065C2.00468 28.8381 3.76001 31.4075 6.37429 32.8094H1.96288C0.880517 32.8094 0 33.6017 0 34.5756C0 35.5495 0.880517 36.3418 1.96288 36.3418H34.0371C35.1195 36.3418 36 35.5495 36 34.5756C36.0001 33.6017 35.1195 32.8094 34.0372 32.8094ZM30.2566 6.66625C30.3685 6.43106 30.6248 6.27911 30.9091 6.27911H31.7507L24.1215 22.2968L22.9998 21.9018L30.2566 6.66625ZM5.03046 8.69434C4.91606 8.70102 4.80737 8.66622 4.72375 8.59584C4.64014 8.52538 4.59404 8.42997 4.59404 8.32689V7.84989C4.59404 7.6469 4.77759 7.48167 5.00327 7.48167H12.9551C13.1808 7.48167 13.3644 7.64683 13.3644 7.84989C13.3644 8.04304 13.1966 8.20448 12.9824 8.21734C12.9824 8.21734 12.9824 8.21734 12.9823 8.21734L5.03046 8.69434ZM10.4333 18.1299C9.96403 18.1405 9.49658 18.186 9.03554 18.2649L8.04429 9.64342L9.44798 9.55926L10.4333 18.1299ZM34.0372 35.2144H1.96288C1.57138 35.2144 1.25287 34.9278 1.25287 34.5756C1.25287 34.2233 1.57138 33.9367 1.96288 33.9367H21.341C21.687 33.9367 21.9675 33.6844 21.9675 33.373C21.9675 33.0617 21.6871 32.8093 21.341 32.8093H10.9293C6.69906 32.8093 3.25755 29.7127 3.25755 25.9064C3.25755 23.6737 4.43306 21.6713 6.48244 20.4127C8.53183 19.1539 11.0326 18.8987 13.3433 19.7124L30.1124 25.6166C31.7101 26.1792 32.7424 27.5402 32.7424 29.086C32.7424 31.139 30.8862 32.8092 28.6045 32.8092H28.0231C27.6772 32.8092 27.3967 33.0615 27.3967 33.3729C27.3967 33.6843 27.6771 33.9366 28.0231 33.9366H34.037C34.4285 33.9366 34.7471 34.2232 34.7471 34.5755C34.7471 34.9278 34.4286 35.2144 34.0372 35.2144Z" />
<path d="M16.658 27.9996H16.2549C16.4924 27.4126 16.6162 26.7889 16.6162 26.1583C16.6162 25.7033 16.5528 25.2511 16.4276 24.8142C16.3414 24.5128 15.9997 24.3312 15.6648 24.409C15.3298 24.4866 15.1281 24.794 15.2145 25.0955C15.3132 25.4405 15.3633 25.7982 15.3633 26.1583C15.3633 26.8157 15.194 27.4632 14.8719 28.047C14.5627 28.1124 14.2816 28.2438 14.0478 28.4237L11.0871 25.7597C10.8424 25.5396 10.4458 25.5396 10.2012 25.7597C9.95654 25.9799 9.95654 26.3367 10.2012 26.5569L13.3948 29.4304C13.3809 29.4948 13.3712 29.5605 13.3655 29.6272C12.5678 30.1361 11.6333 30.4046 10.644 30.4046C8.04188 30.4046 5.92474 28.4997 5.92474 26.1582C5.92474 23.8167 8.0418 21.9119 10.644 21.9119C10.8418 21.9119 11.0406 21.923 11.2347 21.9448C11.3816 21.9613 11.5289 21.9842 11.6726 22.0129C12.0106 22.0807 12.3451 21.8888 12.42 21.5849C12.495 21.281 12.282 20.9799 11.9443 20.9125C11.7623 20.8761 11.5757 20.8471 11.3899 20.8262C11.1445 20.7987 10.8934 20.7847 10.644 20.7847C7.35101 20.7847 4.67188 23.1953 4.67188 26.1584C4.67188 29.1214 7.35101 31.5321 10.644 31.5321C11.7245 31.5321 12.7869 31.2644 13.708 30.7699C14.0626 31.23 14.6535 31.5321 15.3215 31.5321H16.6579C17.7403 31.5321 18.6208 30.7398 18.6208 29.7659C18.6209 28.792 17.7403 27.9996 16.658 27.9996ZM16.658 30.4046H15.3216C14.9301 30.4046 14.6116 30.118 14.6116 29.7657C14.6116 29.4135 14.9301 29.1269 15.3216 29.1269H16.658C17.0495 29.1269 17.368 29.4135 17.368 29.7657C17.3679 30.1181 17.0495 30.4046 16.658 30.4046Z" />
<path d="M25.3458 32.8091H24.0093C23.6633 32.8091 23.3828 33.0614 23.3828 33.3728C23.3828 33.6841 23.6633 33.9365 24.0093 33.9365H25.3457C25.6916 33.9365 25.9722 33.6842 25.9722 33.3728C25.9722 33.0614 25.6917 32.8091 25.3458 32.8091Z" />
</svg>
