<svg width="34" height="34" viewBox="0 0 34 34" xmlns="http://www.w3.org/2000/svg">
<path d="M7.32417 3.62521C7.59819 3.62521 7.82022 3.40715 7.82022 3.13818V1.91937H9.17206V3.13818C9.17206 3.40715 9.39409 3.62521 9.66811 3.62521C9.94213 3.62521 10.1642 3.40715 10.1642 3.13818V1.43234C10.1642 1.16337 9.94213 0.945312 9.66811 0.945312H7.32417C7.05016 0.945312 6.82812 1.16337 6.82812 1.43234V3.13818C6.82812 3.40715 7.05022 3.62521 7.32417 3.62521Z" />
<path d="M7.32417 24.2107C7.59819 24.2107 7.82022 23.9927 7.82022 23.7237V7.6843C7.82022 7.41533 7.59819 7.19727 7.32417 7.19727C7.05016 7.19727 6.82812 7.41533 6.82812 7.6843V23.7236C6.82812 23.9927 7.05022 24.2107 7.32417 24.2107Z" />
<path d="M24.332 3.62521C24.606 3.62521 24.828 3.40715 24.828 3.13818V1.91937H26.1799V3.13818C26.1799 3.40715 26.4019 3.62521 26.6759 3.62521C26.9499 3.62521 27.172 3.40715 27.172 3.13818V1.43234C27.172 1.16337 26.9499 0.945312 26.6759 0.945312H24.332C24.058 0.945312 23.8359 1.16337 23.8359 1.43234V3.13818C23.8359 3.40715 24.058 3.62521 24.332 3.62521Z" />
<path d="M26.68 7.19727C26.4059 7.19727 26.1839 7.41533 26.1839 7.6843V32.765H24.8321V7.6843C24.8321 7.41533 24.61 7.19727 24.336 7.19727C24.062 7.19727 23.84 7.41533 23.84 7.6843V10.3526H10.1642V7.6843C10.1642 7.41533 9.94213 7.19727 9.66811 7.19727C9.39409 7.19727 9.17206 7.41533 9.17206 7.6843V32.765H7.82022V25.3472C7.82022 25.0782 7.59819 24.8602 7.32417 24.8602C7.05016 24.8602 6.82812 25.0782 6.82812 25.3472V33.252C6.82812 33.521 7.05016 33.7391 7.32417 33.7391H9.66811C9.94213 33.7391 10.1642 33.521 10.1642 33.252V32.4816H23.84V33.252C23.84 33.521 24.062 33.7391 24.336 33.7391H26.68C26.954 33.7391 27.176 33.521 27.176 33.252V7.6843C27.176 7.41533 26.9539 7.19727 26.68 7.19727ZM10.1642 17.7289H23.84V18.703H10.1642V17.7289ZM23.8399 19.6771V23.1572H10.1642V19.6771H23.8399ZM10.1642 24.1312H23.84V25.1053H10.1642V24.1312ZM23.8399 16.7549H10.1642V13.2748H23.84V16.7549H23.8399ZM10.1642 26.0793H23.84V29.5594H10.1642V26.0793ZM23.8399 11.3266V12.3007H10.1642V11.3266H23.8399ZM10.1642 31.5076V30.5335H23.84V31.5076H10.1642Z" />
<path d="M33.6192 7.55552C33.599 7.42785 33.5281 7.3133 33.422 7.23694L29.2421 4.23235C29.2373 4.22891 29.2322 4.22605 29.2275 4.22267C29.2229 4.21962 29.2185 4.2165 29.2138 4.21365C28.963 4.04176 28.6699 3.9502 28.363 3.9502H5.63694C5.33005 3.9502 5.03699 4.04169 4.78605 4.21371C4.78149 4.2165 4.77719 4.21956 4.77276 4.22254C4.76786 4.22598 4.76264 4.22891 4.75781 4.23241L0.577964 7.237C0.471875 7.3133 0.400841 7.42785 0.380801 7.55552C0.36076 7.68319 0.393103 7.81345 0.470751 7.91768L1.64295 9.48955C1.74018 9.61982 1.89084 9.68891 2.04363 9.68891C2.14528 9.68891 2.24793 9.65832 2.33629 9.59481L6.12347 6.87238H21.0347C21.3087 6.87238 21.5308 6.65432 21.5308 6.38535C21.5308 6.11638 21.3087 5.89832 21.0347 5.89832H6.26567L5.76182 4.92426H28.2381L27.7342 5.89832H22.6884C22.4144 5.89832 22.1924 6.11638 22.1924 6.38535C22.1924 6.65432 22.4144 6.87238 22.6884 6.87238H27.8764L31.6637 9.59475C31.8847 9.75359 32.195 9.70657 32.357 9.48949L33.5292 7.91761C33.6069 7.81345 33.6393 7.68319 33.6192 7.55552ZM2.15044 8.52114L1.56438 7.7352L4.87296 5.35687L5.3282 6.2369L2.15044 8.52114ZM31.8495 8.52114L28.6718 6.23684L29.127 5.3568L32.4357 7.73514L31.8495 8.52114Z" />
</svg>
