<svg width="36" height="34" viewBox="0 0 36 34" xmlns="http://www.w3.org/2000/svg">
<path d="M28.1426 18.8076C27.8986 18.8076 27.6525 18.8194 27.4113 18.8425C27.2555 18.8575 27.1119 18.9338 27.0123 19.0545C26.9127 19.1753 26.8651 19.3308 26.8801 19.4866C26.895 19.6425 26.9713 19.786 27.0921 19.8856C27.2129 19.9853 27.3683 20.0328 27.5242 20.0179C27.7281 19.9983 27.9362 19.9884 28.1426 19.9884C29.672 19.9887 31.1505 20.5377 32.3095 21.5356C33.4684 22.5336 34.2309 23.9142 34.4582 25.4265C34.6856 26.9389 34.3629 28.4827 33.5486 29.7773C32.7343 31.0719 31.4826 32.0314 30.021 32.4814C28.5593 32.9314 26.9847 32.8421 25.5833 32.2297C24.1819 31.6172 23.0467 30.5223 22.3841 29.144C21.7214 27.7656 21.5753 26.1952 21.9723 24.7182C22.3693 23.2413 23.2829 21.9558 24.5473 21.0953C24.6114 21.0516 24.6662 20.9957 24.7086 20.9309C24.7511 20.866 24.7804 20.7934 24.7948 20.7172C24.8092 20.641 24.8084 20.5628 24.7926 20.4869C24.7767 20.411 24.7461 20.339 24.7024 20.2749C24.6587 20.2109 24.6029 20.156 24.538 20.1136C24.4731 20.0711 24.4005 20.0418 24.3244 20.0274C24.2482 20.013 24.1699 20.0138 24.094 20.0296C24.0181 20.0455 23.9461 20.0761 23.882 20.1198C22.3834 21.1397 21.3004 22.6634 20.8298 24.414C20.3593 26.1647 20.5325 28.026 21.3179 29.6598C22.1033 31.2936 23.4489 32.5914 25.11 33.3173C26.7711 34.0432 28.6375 34.149 30.37 33.6155C32.1025 33.082 33.5861 31.9446 34.5511 30.4101C35.5162 28.8756 35.8987 27.0457 35.629 25.2531C35.3594 23.4605 34.4555 21.8241 33.0818 20.6414C31.708 19.4586 29.9554 18.808 28.1426 18.8078V18.8076Z" />
<path d="M19.5859 25.6747L19.2333 25.5197L24.4635 17.9482C25.2005 19.967 26.1518 22.602 26.8091 24.4265C26.3424 24.7451 26.0056 25.2204 25.8597 25.7662C25.7138 26.312 25.7685 26.8921 26.014 27.401C26.2594 27.9098 26.6793 28.3138 27.1972 28.5394C27.7152 28.765 28.2969 28.7973 28.8367 28.6305C29.3765 28.4636 29.8385 28.1087 30.1388 27.6301C30.4391 27.1516 30.5578 26.5812 30.4732 26.0226C30.3887 25.4639 30.1066 24.9542 29.6781 24.5859C29.2497 24.2176 28.7033 24.0153 28.1383 24.0156C28.0646 24.0156 27.9919 24.0195 27.9198 24.0262C27.197 22.0197 26.1188 19.0336 25.3597 16.9609L26.239 17.4854C26.2753 17.5071 26.3138 17.5248 26.3539 17.5382L27.6037 17.9568C27.8712 18.0455 28.1583 18.0571 28.4321 17.9902C28.7059 17.9234 28.9554 17.7808 29.1519 17.5788L29.9683 16.7349C30.161 16.534 30.2763 16.2713 30.2937 15.9934C30.3111 15.7156 30.2295 15.4405 30.0634 15.2171L30.51 13.747C30.5368 13.6587 30.5426 13.5655 30.5269 13.4746C30.5111 13.3838 30.4743 13.2978 30.4194 13.2238C30.3645 13.1497 30.293 13.0895 30.2107 13.048C30.1283 13.0066 30.0374 12.985 29.9452 12.985H27.3461C27.3065 12.985 27.2669 12.989 27.2281 12.9968L25.3803 13.3732L23.8675 12.2385L23.1768 9.92271C23.2491 9.34072 23.2611 8.75281 23.2125 8.16836C23.238 8.23478 23.2657 8.30724 23.2964 8.38775C23.3623 8.56381 23.4736 8.71932 23.619 8.83854C23.7644 8.95776 23.9387 9.03646 24.1242 9.06668C24.1847 9.07691 24.246 9.08206 24.3074 9.0821C24.4642 9.08218 24.6192 9.04766 24.7611 8.98098C24.9031 8.91431 25.0286 8.81713 25.1287 8.69637L25.6063 8.12666H26.0479C26.1952 8.12667 26.3373 8.07157 26.4461 7.97217C26.5549 7.87277 26.6226 7.73627 26.6359 7.5895L26.7392 6.44707L26.7971 6.47511C26.8737 6.51208 26.9573 6.53207 27.0423 6.53373C27.1273 6.53538 27.2117 6.51866 27.2896 6.4847C27.3675 6.45075 27.4372 6.40035 27.4939 6.33698C27.5506 6.2736 27.5929 6.19873 27.6179 6.11749C27.6494 6.01573 28.3614 3.60474 26.1022 1.9137C24.1135 0.425313 21.1585 0.761084 21.0337 0.775991C20.9311 0.788346 20.8335 0.827433 20.7507 0.889342C20.6679 0.951251 20.6028 1.03381 20.562 1.12877C20.5211 1.22372 20.5059 1.32774 20.5179 1.43042C20.5298 1.5331 20.5685 1.63084 20.6301 1.71386C20.636 1.72191 21.2248 2.53758 21.2248 3.31819C21.2248 3.44822 21.1133 3.83078 21.0131 4.09253C20.9714 4.20154 20.9629 4.32048 20.9887 4.43433C21.0145 4.54817 21.0735 4.6518 21.1582 4.73212C20.4611 4.59442 17.092 3.99667 14.6579 4.77219C12.545 5.44536 10.9966 7.62433 10.7155 8.04136C10.322 8.41152 8.20966 10.5099 8.70748 12.4569C8.31981 12.4672 7.95177 12.6297 7.68301 12.9093C7.41425 13.1889 7.26641 13.5631 7.27146 13.9508C7.27651 14.3386 7.43407 14.7088 7.71002 14.9813C7.98597 15.2538 8.35812 15.4066 8.74593 15.4068H11.38C11.4102 15.4066 11.4404 15.4042 11.4703 15.3994C11.7037 15.5683 11.9573 15.7473 12.2366 15.9381L13.0964 18.1644L9.08193 23.6932C8.53741 23.4448 7.93025 23.3679 7.34099 23.4725C6.75173 23.5772 6.20822 23.8585 5.78255 24.2792C5.35688 24.7 5.06918 25.2401 4.95762 25.8281C4.84605 26.4161 4.91588 27.0241 5.15786 27.5715C5.39984 28.1189 5.80252 28.5798 6.31248 28.893C6.82245 29.2063 7.4156 29.3571 8.01325 29.3254C8.61089 29.2938 9.18479 29.0811 9.65881 28.7158C10.1328 28.3504 10.4846 27.8496 10.6674 27.2797L13.4229 27.5749C13.4299 28.0346 13.5351 28.4875 13.7315 28.9032C13.2352 30.0546 12.411 31.0344 11.3616 31.7206C10.3122 32.4068 9.0841 32.7689 7.83032 32.7618C6.57654 32.7548 5.35256 32.3788 4.31098 31.6809C3.26939 30.9829 2.45627 29.9939 1.97297 28.837C1.48967 27.68 1.35757 26.4065 1.59315 25.175C1.82872 23.9435 2.42155 22.8086 3.29772 21.9118C4.17389 21.0149 5.29466 20.3958 6.5203 20.1316C7.74595 19.8673 9.02225 19.9697 10.1901 20.4259C10.3359 20.483 10.4985 20.4798 10.6419 20.4171C10.7854 20.3544 10.8981 20.2372 10.9552 20.0914C11.0123 19.9456 11.0092 19.7831 10.9465 19.6396C10.8838 19.4961 10.7666 19.3834 10.6208 19.3263C9.26232 18.7945 7.77912 18.6664 6.34958 18.9575C4.92005 19.2487 3.60506 19.9466 2.56279 20.9674C1.52051 21.9881 0.795327 23.2883 0.474463 24.7115C0.153598 26.1346 0.250715 27.6202 0.754133 28.9894C1.25755 30.3587 2.14583 31.5534 3.31214 32.4298C4.47844 33.3061 5.8731 33.8269 7.32837 33.9295C8.78364 34.032 10.2375 33.7119 11.5152 33.0077C12.7929 32.3036 13.8399 31.2452 14.5304 29.9601C14.887 30.2733 15.3079 30.5045 15.7636 30.6373C16.2193 30.77 16.6986 30.8012 17.1676 30.7285C17.6366 30.6559 18.084 30.4811 18.4782 30.2167C18.8723 29.9523 19.2036 29.6046 19.4487 29.1982C19.55 29.1755 19.6436 29.1264 19.7198 29.0559C19.796 28.9854 19.8523 28.896 19.8828 28.7967L20.3369 27.3111C20.4339 26.9937 20.411 26.6517 20.2726 26.3501C20.1341 26.0485 19.8898 25.8081 19.5859 25.6747ZM27.2373 25.6164C27.4472 26.2002 27.5768 26.561 27.5827 26.5772C27.6086 26.6506 27.6487 26.7182 27.7008 26.7761C27.7528 26.834 27.8158 26.8809 27.8861 26.9144C27.9564 26.9478 28.0327 26.967 28.1104 26.9708C28.1882 26.9747 28.2659 26.9631 28.3392 26.9368C28.4124 26.9105 28.4797 26.8699 28.5373 26.8175C28.5948 26.7651 28.6414 26.7018 28.6744 26.6313C28.7074 26.5608 28.7261 26.4844 28.7294 26.4067C28.7328 26.3289 28.7207 26.2512 28.694 26.1781C28.6881 26.1617 28.5585 25.8009 28.3483 25.2167C28.6044 25.2627 28.8381 25.392 29.0132 25.5844C29.1884 25.7768 29.2951 26.0216 29.3169 26.2809C29.3386 26.5402 29.2742 26.7994 29.1336 27.0183C28.9931 27.2372 28.7842 27.4036 28.5393 27.4917C28.2945 27.5798 28.0275 27.5846 27.7796 27.5054C27.5318 27.4262 27.317 27.2674 27.1686 27.0537C27.0203 26.84 26.9466 26.5833 26.959 26.3234C26.9714 26.0635 27.0692 25.815 27.2373 25.6164ZM7.85713 28.1488C7.6028 28.1489 7.35143 28.0942 7.12011 27.9885C6.88879 27.8828 6.68295 27.7285 6.5166 27.5361C6.35025 27.3437 6.22728 27.1178 6.15606 26.8736C6.08484 26.6295 6.06705 26.3728 6.10388 26.1212C6.14072 25.8695 6.23132 25.6287 6.36952 25.4152C6.50773 25.2017 6.6903 25.0205 6.90481 24.8839C7.11932 24.7472 7.36075 24.6584 7.61266 24.6234C7.86458 24.5884 8.12107 24.6081 8.3647 24.6811L7.37938 26.0381C7.31855 26.1219 7.28082 26.2202 7.26998 26.3231C7.25913 26.4261 7.27554 26.5301 7.31757 26.6247C7.3596 26.7193 7.42577 26.8012 7.50943 26.8622C7.5931 26.9231 7.69133 26.961 7.79426 26.972L9.45098 27.1491C9.30585 27.4485 9.07942 27.701 8.79757 27.8778C8.51572 28.0545 8.18983 28.1485 7.85713 28.1488ZM8.93411 25.9066L9.31785 25.3778C9.44221 25.5589 9.53164 25.7616 9.58152 25.9756L8.93411 25.9066ZM16.3349 18.4842C16.4456 18.5477 16.5462 18.6053 16.6334 18.6548L15.7639 21.7939L14.5862 18.7446C15.0269 18.6786 15.6346 18.5882 16.3349 18.4842ZM14.1502 17.6155L13.9288 17.0416C14.2006 17.2118 14.4664 17.3754 14.7217 17.5305L14.1502 17.6155ZM17.8944 18.5246C17.9298 18.3967 17.9211 18.2606 17.8697 18.1382C17.8182 18.0158 17.727 17.9144 17.6108 17.8502C16.8898 17.4517 16.0354 16.9556 15.1619 16.4196L17.2475 14.1827L20.0665 16.534C20.1549 16.608 20.219 16.7068 20.2506 16.8177C20.2821 16.9286 20.2797 17.0464 20.2436 17.1558L17.6509 25.0872L16.8018 25.122L16.1178 24.9412L17.8944 18.5246ZM19.6076 22.9003L21.2917 17.75C22.21 17.6146 22.8842 17.5158 23.3769 17.4441L19.6076 22.9003ZM21.3988 16.5407C21.3081 16.1852 21.1083 15.8671 20.8274 15.6311L16.5473 12.025L19.6936 11.4988L20.9865 14.2356C21.0366 14.3417 21.1171 14.4304 21.2178 14.4905L23.7468 15.9994L23.7475 16.0014C23.7696 16.0609 23.7928 16.1234 23.8165 16.1872C23.3505 16.2542 22.6037 16.3633 21.3991 16.5407H21.3988ZM27.4053 14.166H29.1483L29.0524 14.4807C28.8744 14.4439 28.6906 14.4463 28.5137 14.4876L27.2553 14.7803L26.6433 14.3213L27.4053 14.166ZM26.7671 15.8899C26.8361 15.9416 26.9155 15.9776 26.9997 15.9953C27.084 16.013 27.1712 16.0121 27.2551 15.9927L28.7813 15.6376C28.7931 15.6349 28.8054 15.6352 28.817 15.6385C28.8286 15.6418 28.8392 15.648 28.8477 15.6566L29.114 15.9197L28.3027 16.7586C28.2615 16.801 28.2092 16.8309 28.1517 16.8449C28.0943 16.8589 28.0341 16.8564 27.978 16.8378L26.7885 16.4393L21.9764 13.5686L21.2975 12.132L22.5279 11.8819L22.7906 12.763C22.8267 12.8842 22.9009 12.9907 23.0021 13.0666L26.7671 15.8899ZM25.5877 6.07034L25.5085 6.94622H25.3309C25.2446 6.94622 25.1594 6.96513 25.0812 7.00161C25.003 7.03808 24.9338 7.09124 24.8784 7.15735L24.3368 7.80329C24.0589 7.07581 24.0382 7.03456 24.0199 6.99788C23.9524 6.86295 23.8358 6.75896 23.6941 6.70726C23.5524 6.65557 23.3963 6.66009 23.2578 6.71989L22.9734 6.84276C22.8457 6.4411 22.6619 6.05951 22.4273 5.70933L22.6526 5.58498C22.8593 5.68483 23.0723 5.77995 23.2793 5.85987C24.2466 6.23298 25.1778 6.04599 25.6252 5.91153C25.6054 5.96247 25.5928 6.01592 25.5877 6.07034ZM25.3946 2.85933C26.3354 3.56334 26.551 4.4365 26.5675 5.04221C26.564 5.04428 26.5605 5.0462 26.5571 5.04834L25.9213 4.74135C25.8448 4.70444 25.7613 4.68446 25.6764 4.68277C25.5916 4.68107 25.5073 4.69771 25.4294 4.73153C25.421 4.73515 24.5614 5.0887 23.7043 4.75825C23.2109 4.55537 22.7331 4.31651 22.2747 4.0436C22.3498 3.80865 22.3938 3.56487 22.4056 3.31849C22.3938 2.83509 22.2852 2.35898 22.086 1.91835C22.9915 1.93761 24.3868 2.10491 25.3946 2.85933ZM8.74593 14.2266C8.66765 14.2266 8.59256 14.1955 8.53721 14.1401C8.48185 14.0848 8.45075 14.0097 8.45075 13.9314C8.45075 13.8531 8.48185 13.778 8.53721 13.7227C8.59256 13.6673 8.66765 13.6362 8.74593 13.6362H9.3839C9.57439 13.8435 9.77577 14.0406 9.98718 14.2266H8.74593ZM9.94659 12.415C9.40973 11.367 10.5928 9.88972 11.2142 9.22025L12.0924 9.92485C12.2145 10.0228 12.3705 10.0683 12.5262 10.0512C12.6818 10.0342 12.8243 9.95595 12.9223 9.83382C13.0203 9.7117 13.0658 9.55564 13.0487 9.4C13.0316 9.24435 12.9534 9.10186 12.8313 9.00388L11.9757 8.31757C12.5016 7.63504 13.6455 6.3346 15.0167 5.89773C15.7999 5.64815 16.7192 5.56447 17.6006 5.56447C18.7355 5.5743 19.8672 5.68713 20.9817 5.90157C21.307 6.06296 21.8939 6.84062 22.0087 7.95022C22.1305 9.12756 21.9953 9.84072 21.9943 9.84559C21.975 9.94064 21.9794 10.039 22.0072 10.1319L22.1904 10.7463L20.7792 11.0329L20.5703 10.5907C20.5154 10.4745 20.424 10.3793 20.3101 10.3197C20.1962 10.2601 20.066 10.2394 19.9392 10.2605L15.3531 11.0276L14.1576 10.0682C14.0971 10.0197 14.0277 9.98358 13.9533 9.96189C13.8788 9.9402 13.8009 9.93338 13.7238 9.94183C13.6467 9.95027 13.5721 9.97381 13.5041 10.0111C13.4362 10.0484 13.3762 10.0987 13.3277 10.1592C13.2791 10.2197 13.243 10.2891 13.2213 10.3635C13.1996 10.438 13.1928 10.5159 13.2013 10.593C13.2097 10.6701 13.2332 10.7447 13.2705 10.8127C13.3078 10.8807 13.3582 10.9406 13.4186 10.9891L16.3395 13.4254L14.1432 15.7811C12.1738 14.5195 10.3341 13.1719 9.94659 12.415ZM12.7767 22.2962C13.5243 23.1932 14.01 24.2788 14.1806 25.4339C13.9373 25.7231 13.7467 26.0528 13.6174 26.408L10.7962 26.106C10.7373 25.4659 10.4703 24.8627 10.0361 24.3888L13.603 19.4763L15.2353 23.7026L15.1042 24.176C14.8119 23.2117 14.3291 22.3159 13.6845 21.5415C13.5844 21.421 13.4406 21.3453 13.2847 21.3309C13.1287 21.3166 12.9735 21.3647 12.8531 21.4648C12.7327 21.5649 12.6569 21.7087 12.6426 21.8647C12.6282 22.0206 12.6764 22.1758 12.7765 22.2962H12.7767ZM16.6689 29.5864C16.3675 29.5867 16.0697 29.521 15.7964 29.394C15.5232 29.2669 15.281 29.0815 15.087 28.8509C14.8931 28.6202 14.7519 28.3499 14.6736 28.0589C14.5952 27.7678 14.5816 27.4632 14.6335 27.1663C14.6681 27.2547 14.7101 27.34 14.759 27.4213C14.877 27.6157 15.0325 27.7845 15.2166 27.918C15.4006 28.0515 15.6095 28.147 15.8309 28.1987L18.2002 28.9066C18.0066 29.1206 17.7703 29.2917 17.5065 29.4087C17.2427 29.5257 16.9573 29.5862 16.6687 29.586L16.6689 29.5864ZM19.208 26.9666L18.9254 27.8912L16.1492 27.0614C16.1345 27.0571 16.1197 27.0533 16.1049 27.05C16.0356 27.035 15.97 27.006 15.9123 26.9648C15.8546 26.9235 15.8059 26.8709 15.7691 26.8102C15.7324 26.7495 15.7085 26.6819 15.6988 26.6116C15.6892 26.5413 15.6939 26.4698 15.7129 26.4014L15.8021 26.0793L16.5859 26.2865C16.6351 26.2995 16.6858 26.3061 16.7367 26.3062C16.7448 26.3062 16.7528 26.3062 16.7608 26.3056L17.972 26.2561L19.1113 26.7562C19.1503 26.7733 19.1817 26.804 19.1995 26.8427C19.2173 26.8814 19.2203 26.9252 19.208 26.966V26.9666Z" />
</svg>
