<svg width="46" height="25" viewBox="0 0 46 25" xmlns="http://www.w3.org/2000/svg">
<path d="M44.7931 8.72422H41.6473V5.02362C41.6473 3.90551 40.8335 2.99583 39.833 2.99583H37.7007C37.5319 2.99583 37.369 3.02367 37.2139 3.0721V2.32565C37.2139 1.20754 36.4001 0.297852 35.3997 0.297852H31.8772C30.8768 0.297852 30.0629 1.20744 30.0629 2.32565V8.72422H15.9407V2.32565C15.9407 1.20754 15.1269 0.297852 14.1264 0.297852H10.604C9.6036 0.297852 8.7897 1.20744 8.7897 2.32565V3.0721C8.63453 3.02367 8.47173 2.99583 8.30297 2.99583H6.1708C5.17041 2.99583 4.3565 3.90541 4.3565 5.02362V8.72422H1.21061C0.843965 8.72422 0.546875 9.05637 0.546875 9.46607V15.2172C0.546875 15.6269 0.843965 15.9591 1.21061 15.9591H4.3565V19.6597C4.3565 20.7778 5.17032 21.6874 6.1708 21.6874H8.30306C8.47182 21.6874 8.63471 21.6595 8.78979 21.6112V22.3576C8.78979 23.4757 9.6036 24.3854 10.6041 24.3854H14.1265C15.1269 24.3854 15.9408 23.4757 15.9408 22.3576V15.9591H30.0631V22.3576C30.0631 23.4757 30.877 24.3854 31.8774 24.3854H35.3998C36.4002 24.3854 37.2141 23.4758 37.2141 22.3576V21.6112C37.3693 21.6596 37.5321 21.6874 37.7008 21.6874H39.8332C40.8336 21.6874 41.6475 20.7779 41.6475 19.6597V15.9591H44.7933C45.1599 15.9591 45.457 15.6269 45.457 15.2172V9.46607C45.4569 9.05637 45.1598 8.72422 44.7931 8.72422ZM4.3565 14.4754H1.87444V10.2079H4.3565V14.4754ZM8.78979 19.6597C8.78979 19.9596 8.57146 20.2038 8.30306 20.2038H6.1708C5.90248 20.2038 5.68407 19.9597 5.68407 19.6597V15.2172V9.46607V5.02352C5.68407 4.72353 5.90248 4.47952 6.1708 4.47952H8.30306C8.57146 4.47952 8.78979 4.72353 8.78979 5.02352V19.6597ZM14.6132 9.46616V15.2173V22.3576C14.6132 22.6576 14.3948 22.9016 14.1264 22.9016H10.604C10.3357 22.9016 10.1173 22.6576 10.1173 22.3576V19.6597V5.02352V2.32565C10.1173 2.02565 10.3357 1.78164 10.604 1.78164H14.1264C14.3948 1.78164 14.6132 2.02565 14.6132 2.32565V9.46616ZM30.0629 14.4754H15.9407V10.2079H30.0629V14.4754ZM35.8865 5.02343V19.6597V22.3577C35.8865 22.6577 35.6681 22.9017 35.3997 22.9017H31.8773C31.609 22.9017 31.3906 22.6577 31.3906 22.3577V15.2173V9.46616V2.32574C31.3906 2.02575 31.609 1.78174 31.8773 1.78174H35.3997C35.6681 1.78174 35.8865 2.02575 35.8865 2.32574V5.02343ZM40.3198 9.46607V15.2172V19.6597C40.3198 19.9597 40.1014 20.2038 39.8331 20.2038H37.7008C37.4324 20.2038 37.214 19.9597 37.214 19.6597V5.02352C37.214 4.72353 37.4324 4.47952 37.7008 4.47952H39.8331C40.1014 4.47952 40.3198 4.72353 40.3198 5.02352V9.46607ZM44.1293 14.4754H41.6473V10.2079H44.1293V14.4754Z"/>
</svg>
