<svg width="19" height="19" viewBox="0 0 19 19" xmlns="http://www.w3.org/2000/svg">
<path d="M3.79999 0.0362836C3.05666 -0.374568 2.1839 -0.365069 1.44531 0.0422207L10.1017 8.02771L13.0097 5.11968L3.79999 0.0362836Z"/>
<path d="M0.582481 0.859131C0.371118 1.20467 0.25 1.60009 0.25 2.01925V16.4418C0.25 16.8479 0.360431 17.235 0.55992 17.5734L9.26499 8.86836L0.582481 0.859131Z"/>
<path d="M16.8674 7.2474L14.0936 5.7168L10.9766 8.83262L14.7965 12.3557L16.8686 11.2122C17.6143 10.799 18.0608 10.0581 18.0608 9.22922C18.0596 8.4004 17.6143 7.65944 16.8674 7.2474Z"/>
<path d="M10.1351 9.67383L1.40625 18.4026C1.78504 18.6188 2.20064 18.7328 2.61862 18.7328C3.02235 18.7328 3.42845 18.6306 3.80011 18.4252L13.6997 12.9618L10.1351 9.67383Z"/>
</svg>
