<svg width="35" height="37" viewBox="0 0 35 37"  xmlns="http://www.w3.org/2000/svg">
<path d="M34.5436 11.8879L30.6326 7.97687C30.3358 7.68006 29.9412 7.51656 29.5214 7.51656H26.8326V2.25014C26.8326 1.26464 26.0309 0.462891 25.0454 0.462891H11.0903C10.1048 0.462891 9.30303 1.26464 9.30303 2.25014V7.51663H6.47455C6.05475 7.51663 5.66016 7.68013 5.36341 7.97687L1.4525 11.8879C1.15568 12.1847 0.992188 12.5793 0.992188 12.999C0.992188 13.4187 1.15568 13.8133 1.45243 14.1101C1.74917 14.4069 2.14376 14.5704 2.56357 14.5704C2.98337 14.5704 3.37796 14.4069 3.67471 14.1101L7.12538 10.6594H9.30303V22.0432H9.25917C8.32068 22.0432 7.55706 22.8067 7.55706 23.7453V25.0055C7.10604 25.1966 6.78883 25.6438 6.78883 26.1637C6.78883 26.8568 7.35278 27.4208 8.04593 27.4208H9.30303V31.1921H7.98287C7.22819 31.1921 6.61423 31.806 6.61423 32.5607V35.6967C6.61423 35.986 6.84868 36.2205 7.13802 36.2205H28.9976C29.287 36.2205 29.5214 35.986 29.5214 35.6967V32.5607C29.5214 31.806 28.9075 31.1921 28.1528 31.1921H26.8326V27.4208H27.9501C28.6432 27.4208 29.2072 26.8568 29.2072 26.1637C29.2072 25.6996 28.9537 25.2944 28.5786 25.0767V23.7453C28.5786 22.8067 27.815 22.0432 26.8765 22.0432H26.8326V10.6594H28.8706L32.3213 14.1101C32.618 14.4069 33.0126 14.5704 33.4324 14.5704C33.8522 14.5704 34.2468 14.4069 34.5435 14.1101C34.8403 13.8133 35.0038 13.4187 35.0038 12.999C35.0038 12.5793 34.8403 12.1847 34.5436 11.8879ZM10.3506 2.25014C10.3506 1.84228 10.6824 1.51048 11.0903 1.51048H25.0454C25.4532 1.51048 25.785 1.84228 25.785 2.25014V2.78825H10.3506V2.25014ZM10.3506 3.83584H25.785V4.44372H10.3506V3.83584ZM25.785 5.4913V7.51663H25.0867V5.4913H25.785ZM24.0391 5.4913V7.51663H18.5916V5.4913H24.0391ZM17.544 5.4913V7.51663H12.0966V5.4913H17.544ZM10.3506 5.4913H11.049V7.51663H10.3506V5.4913ZM28.1528 32.2397C28.3298 32.2397 28.4738 32.3837 28.4738 32.5607V35.1729H7.66182V33.796H25.6223C25.9116 33.796 26.146 33.5615 26.146 33.2722C26.146 32.983 25.9116 32.7484 25.6223 32.7484H7.66182V32.5607C7.66182 32.3837 7.80589 32.2397 7.98287 32.2397H28.1528ZM10.3506 31.1921V27.4208H11.049V31.1921H10.3506ZM12.0966 31.1921V27.4208H13.7029V31.1921H12.0966ZM14.7505 31.1921V27.4208H21.2455V31.1921H14.7505ZM22.2931 31.1921V27.4208H24.0391V31.1921H22.2931ZM25.0867 31.1921V27.4208H25.785V31.1921H25.0867ZM28.1596 26.1637C28.1596 26.2792 28.0656 26.3732 27.9501 26.3732H8.04593C7.93042 26.3732 7.83641 26.2792 7.83641 26.1637C7.83641 26.0481 7.93042 25.9541 8.04593 25.9541H27.9501C28.0656 25.9541 28.1596 26.0481 28.1596 26.1637ZM26.8765 23.0907C27.2374 23.0907 27.531 23.3843 27.531 23.7453V24.9066H8.60464V23.7453C8.60464 23.3843 8.89825 23.0907 9.25917 23.0907H26.8765ZM10.3506 22.0432V10.6594H11.049V22.0432H10.3506ZM20.2236 19.5988C20.4771 19.5988 20.6879 19.789 20.714 20.0412L20.9211 22.0432H15.0748L15.2819 20.0412C15.308 19.789 15.5188 19.5988 15.7723 19.5988H20.2236ZM17.6139 18.1671C17.6139 17.9553 17.7862 17.783 17.998 17.783C18.2098 17.783 18.3821 17.9553 18.3821 18.1671C18.3821 18.3789 18.2098 18.5512 17.998 18.5512C17.7862 18.5512 17.6139 18.3789 17.6139 18.1671ZM17.5091 16.8232C16.96 17.0236 16.5663 17.5495 16.5663 18.1671C16.5663 18.3003 16.586 18.4288 16.6201 18.5512H15.7724C14.9802 18.5512 14.3215 19.1454 14.24 19.9334L14.0217 22.0432H12.0966V10.6594H17.5091V16.8232ZM25.0867 22.0432V10.6594H25.785V22.0432H25.0867ZM33.8028 13.3694C33.7039 13.4684 33.5723 13.5228 33.4324 13.5228C33.2925 13.5228 33.161 13.4683 33.0621 13.3694L29.3045 9.61181H22.7045C22.3922 9.61181 22.1513 9.88669 22.1919 10.1963C22.1925 10.2008 22.1931 10.2052 22.1936 10.2096C22.2265 10.4671 22.4467 10.6593 22.7063 10.6593H24.0391V22.0431H21.9743L21.756 19.9332C21.6748 19.148 21.0131 18.5511 20.2236 18.5511H19.3758C19.4101 18.4287 19.4297 18.3002 19.4297 18.167C19.4297 17.5757 19.0693 17.0671 18.5567 16.8489V10.6594H19.4604C19.7273 10.6594 19.9496 10.4564 19.9751 10.1907C19.9755 10.1862 19.9759 10.1818 19.9764 10.1774C20.0066 9.87419 19.7663 9.61181 19.4616 9.61181H6.69147L2.93385 13.3694C2.83503 13.4683 2.70345 13.5228 2.56357 13.5228C2.42368 13.5228 2.2921 13.4683 2.19314 13.3694C2.08629 13.2625 2.03132 13.1176 2.04082 12.9652C2.04913 12.8327 2.11234 12.7095 2.20627 12.6157L6.10427 8.71766C6.20309 8.61869 6.33466 8.56422 6.47455 8.56422H29.5214C29.6613 8.56422 29.7929 8.61869 29.8918 8.71766L33.8028 12.6286H33.8028C33.9017 12.7276 33.9562 12.8591 33.9562 12.999C33.9562 13.1389 33.9017 13.2704 33.8028 13.3694Z"/>
</svg>
