<svg width="26" height="27" viewBox="0 0 26 27" xmlns="http://www.w3.org/2000/svg">
<path d="M25.9218 7.98199C25.8586 6.59821 25.6388 5.6532 25.3174 4.82642C24.9911 3.95897 24.4793 3.17325 23.818 2.5238C23.1687 1.86246 22.3828 1.35048 21.5154 1.02397C20.6884 0.70282 19.7436 0.483231 18.3598 0.420349C16.9734 0.356873 16.5305 0.341797 13 0.341797C9.46951 0.341797 9.02657 0.356873 7.6402 0.419952C6.25641 0.483231 5.3116 0.703018 4.48462 1.02437C3.61717 1.35068 2.83145 1.86246 2.18201 2.5238C1.52066 3.17305 1.00868 3.95877 0.682175 4.82622C0.361023 5.6532 0.141434 6.59821 0.0785522 7.9818C0.0150757 9.36836 0 9.81111 0 13.3416C0 16.8723 0.0150757 17.3152 0.0785522 18.7016C0.141632 20.0852 0.36142 21.0302 0.68277 21.8572C1.00908 22.7244 1.52086 23.5103 2.18221 24.1596C2.83145 24.8209 3.61737 25.3327 4.48482 25.659C5.3116 25.9806 6.25661 26.2002 7.6404 26.2634C9.02696 26.3267 9.46971 26.3416 13.0002 26.3416C16.5307 26.3416 16.9736 26.3267 18.36 26.2634C19.7438 26.2002 20.6886 25.9806 21.5156 25.659C23.2618 24.9838 24.6422 23.6034 25.3174 21.8572C25.639 21.0302 25.8586 20.0852 25.9218 18.7016C25.9849 17.315 26 16.8723 26 13.3418C26 9.81111 25.9849 9.36836 25.9218 7.98199ZM23.5817 18.5951C23.524 19.8626 23.3122 20.5509 23.1342 21.009C22.6968 22.1428 21.8008 23.0388 20.667 23.4762C20.209 23.6542 19.5206 23.866 18.2531 23.9237C16.8826 23.9864 16.4714 23.9995 13 23.9995C9.52843 23.9995 9.11742 23.9864 7.74672 23.9237C6.47937 23.866 5.79105 23.6542 5.33282 23.4762C4.76828 23.2677 4.25749 22.9355 3.83815 22.5036C3.40631 22.0843 3.07405 21.5737 2.86557 21.009C2.68764 20.5509 2.47578 19.8626 2.41806 18.5951C2.35558 17.2244 2.34229 16.8132 2.34229 13.342C2.34229 9.87062 2.35558 9.45961 2.41806 8.08871C2.47598 6.82117 2.68764 6.13284 2.86557 5.67482C3.07405 5.11008 3.40651 4.59929 3.83815 4.17995C4.25749 3.74811 4.76828 3.41585 5.33302 3.20757C5.79105 3.02943 6.47937 2.81778 7.74692 2.75986C9.11761 2.69737 9.52882 2.68408 13 2.68408H12.9998C16.471 2.68408 16.8822 2.69737 18.2531 2.76006C19.5206 2.81778 20.2088 3.02963 20.667 3.20757C21.2315 3.41605 21.7423 3.74831 22.1617 4.17995C22.5935 4.59929 22.9258 5.11008 23.134 5.67482C23.3122 6.13284 23.524 6.82117 23.5817 8.08871C23.6442 9.45941 23.6575 9.87062 23.6575 13.3418C23.6575 16.8132 23.6444 17.2242 23.5817 18.5951Z"/>
<path d="M13.0037 6.66602C9.31688 6.66602 6.32812 9.65497 6.32812 13.3418C6.32812 17.0286 9.31688 20.0173 13.0037 20.0173C16.6907 20.0173 19.6794 17.0286 19.6794 13.3418C19.6794 9.65497 16.6907 6.66602 13.0037 6.66602ZM13.0037 17.675C10.6106 17.6748 8.67041 15.7348 8.67061 13.3416C8.67061 10.9485 10.6106 9.0083 13.0039 9.0083C15.3971 9.0085 17.3371 10.9485 17.3371 13.3416C17.3371 15.7348 15.3969 17.675 13.0037 17.675Z"/>
<path d="M21.4951 6.40291C21.4951 7.2644 20.7966 7.96284 19.9351 7.96284C19.0734 7.96284 18.375 7.2644 18.375 6.40291C18.375 5.54121 19.0734 4.84277 19.9351 4.84277C20.7966 4.84277 21.4951 5.54121 21.4951 6.40291Z"/>
</svg>
