<svg width="28" height="37" viewBox="0 0 28 37" xmlns="http://www.w3.org/2000/svg">
<path d="M7.45584 33.5504V34.767C7.45584 35.2511 7.6438 35.7153 7.97837 36.0575C8.31294 36.3998 8.76671 36.592 9.23986 36.592H21.1333C21.6065 36.592 22.0603 36.3998 22.3948 36.0575C22.7294 35.7153 22.9174 35.2511 22.9174 34.767V25.8148C23.5513 24.7484 27.0801 18.4759 27.0801 11.042C27.0801 9.67449 27.0242 8.38057 26.9142 7.19614C26.7334 5.24242 25.8433 3.42898 24.4195 2.11378C22.9956 0.79859 21.1416 0.0772042 19.2232 0.0920207H12.8079C11.2888 0.0943336 9.80375 0.553199 8.53738 1.41161C7.27102 2.27002 6.27911 3.49013 5.6849 4.92036C5.1901 4.54789 4.59133 4.34806 3.977 4.35036C3.28209 4.35596 2.61213 4.616 2.08849 5.08336C1.56485 5.55073 1.22218 6.19451 1.12256 6.89806C0.977895 8.0707 0.908368 9.25177 0.914427 10.4337C0.914427 20.4377 6.16956 24.9936 7.45584 25.959V33.5504ZM21.728 34.767C21.728 34.9284 21.6654 35.0831 21.5538 35.1972C21.4423 35.3113 21.2911 35.3754 21.1333 35.3754H9.23986C9.08214 35.3754 8.93089 35.3113 8.81936 35.1972C8.70784 35.0831 8.64519 34.9284 8.64519 34.767V34.1587H17.5653C18.0384 34.1587 18.4922 33.9664 18.8268 33.6242C19.1614 33.2819 19.3493 32.8177 19.3493 32.3337V29.292C19.3493 28.808 19.1614 28.3438 18.8268 28.0016C18.4922 27.6593 18.0384 27.467 17.5653 27.467H8.64519V26.2504H21.728V34.767ZM8.64519 32.942V28.6837H17.5653C17.723 28.6837 17.8743 28.7478 17.9858 28.8619C18.0973 28.976 18.16 29.1307 18.16 29.292V32.3337C18.16 32.495 18.0973 32.6498 17.9858 32.7639C17.8743 32.8779 17.723 32.942 17.5653 32.942H8.64519ZM2.10377 10.4337C2.09754 9.30407 2.16349 8.17523 2.30121 7.0544C2.36039 6.6424 2.56203 6.26575 2.8695 5.99285C3.17698 5.71994 3.56992 5.56886 3.977 5.56702C4.22771 5.56766 4.47504 5.62619 4.70054 5.73827C4.92604 5.85034 5.12389 6.01307 5.27933 6.21429C5.14619 6.79992 5.07836 7.3991 5.07714 8.00036C5.06631 9.26872 5.1859 10.5347 5.43395 11.7775C5.44835 11.8575 5.47829 11.9337 5.522 12.0017C5.56571 12.0697 5.6223 12.128 5.68842 12.1731C5.75454 12.2183 5.82885 12.2495 5.90695 12.2648C5.98505 12.2801 6.06536 12.2792 6.14312 12.2622C6.22089 12.2452 6.29453 12.2124 6.35968 12.1658C6.42484 12.1191 6.48019 12.0596 6.52247 11.9907C6.56474 11.9218 6.59308 11.8449 6.6058 11.7646C6.61852 11.6843 6.61537 11.6023 6.59654 11.5232C6.36669 10.3639 6.25607 9.18321 6.26649 8.00036C6.26571 7.12137 6.43437 6.25085 6.76283 5.43862C7.09129 4.62639 7.5731 3.88839 8.18068 3.26685C8.78826 2.64531 9.5097 2.15244 10.3037 1.81643C11.0977 1.48043 11.9487 1.30789 12.8079 1.30869H19.2232C20.8452 1.29482 22.4134 1.90355 23.618 3.01471C24.8227 4.12586 25.5764 5.65867 25.7302 7.31051C25.8366 8.45722 25.8907 9.71282 25.8907 11.042C25.8907 17.7842 22.7461 23.7021 21.9861 25.0337H8.23843C7.34226 24.3645 2.10377 20.0454 2.10377 10.4337Z" />
<path d="M11.62 29.9004H10.4306C10.2729 29.9004 10.1216 29.9645 10.0101 30.0786C9.89859 30.1927 9.83594 30.3474 9.83594 30.5087C9.83594 30.6701 9.89859 30.8248 10.0101 30.9389C10.1216 31.053 10.2729 31.1171 10.4306 31.1171H11.62C11.7777 31.1171 11.9289 31.053 12.0405 30.9389C12.152 30.8248 12.2146 30.6701 12.2146 30.5087C12.2146 30.3474 12.152 30.1927 12.0405 30.0786C11.9289 29.9645 11.7777 29.9004 11.62 29.9004Z" />
<path d="M15.1903 29.9004H14.0009C13.8432 29.9004 13.6919 29.9645 13.5804 30.0786C13.4689 30.1927 13.4062 30.3474 13.4062 30.5087C13.4062 30.6701 13.4689 30.8248 13.5804 30.9389C13.6919 31.053 13.8432 31.1171 14.0009 31.1171H15.1903C15.348 31.1171 15.4992 31.053 15.6108 30.9389C15.7223 30.8248 15.7849 30.6701 15.7849 30.5087C15.7849 30.3474 15.7223 30.1927 15.6108 30.0786C15.4992 29.9645 15.348 29.9004 15.1903 29.9004Z" />
<path d="M19.2197 3.74183C20.2489 3.73042 21.245 4.11413 22.0112 4.81722C22.7775 5.52031 23.2582 6.4917 23.3586 7.53966C23.3725 7.69026 23.4408 7.83017 23.5501 7.93207C23.6593 8.03398 23.8018 8.09057 23.9497 8.09081H24.0092C24.166 8.0754 24.3104 7.997 24.4107 7.8728C24.5111 7.7486 24.5591 7.58875 24.5444 7.42833C24.4183 6.07741 23.8013 4.82407 22.8153 3.91616C21.8293 3.00824 20.5462 2.51186 19.2197 2.52516C19.062 2.52516 18.9107 2.58926 18.7992 2.70334C18.6877 2.81742 18.625 2.97216 18.625 3.1335C18.625 3.29484 18.6877 3.44957 18.7992 3.56365C18.9107 3.67774 19.062 3.74183 19.2197 3.74183Z" />
</svg>
