<svg width="23" height="29" viewBox="0 0 23 29" xmlns="http://www.w3.org/2000/svg">
<path d="M11.1931 14.3783C12.9955 14.3783 14.5561 13.7138 15.8316 12.4025C17.1067 11.0915 17.7533 9.48744 17.7533 7.63426C17.7533 5.78173 17.1069 4.17742 15.8314 2.86599C14.5559 1.55521 12.9953 0.890625 11.1931 0.890625C9.39041 0.890625 7.83003 1.55521 6.55476 2.86621C5.27949 4.17721 4.63281 5.78152 4.63281 7.63426C4.63281 9.48744 5.27949 11.0917 6.55476 12.4027C7.83045 13.7135 9.39103 14.3783 11.1931 14.3783ZM7.68353 4.02639C8.66207 3.02044 9.80996 2.53146 11.1931 2.53146C12.576 2.53146 13.7241 3.02044 14.7028 4.02639C15.6814 5.03255 16.1572 6.21282 16.1572 7.63426C16.1572 9.05614 15.6814 10.2362 14.7028 11.2424C13.7241 12.2485 12.576 12.7375 11.1931 12.7375C9.81037 12.7375 8.66248 12.2483 7.68353 11.2424C6.70479 10.2364 6.22893 9.05614 6.22893 7.63426C6.22893 6.21282 6.70479 5.03255 7.68353 4.02639Z"/>
<path d="M22.6688 22.4196C22.632 21.874 22.5576 21.2788 22.4481 20.6503C22.3375 20.0172 22.1952 19.4186 22.0248 18.8715C21.8486 18.3061 21.6094 17.7476 21.3133 17.2125C21.0064 16.6571 20.6456 16.1735 20.2408 15.7755C19.8175 15.3591 19.2993 15.0244 18.7 14.7802C18.1028 14.5373 17.4409 14.4143 16.7329 14.4143C16.4549 14.4143 16.186 14.5316 15.6667 14.8791C15.3471 15.0934 14.9733 15.3412 14.556 15.6153C14.1992 15.849 13.7159 16.0679 13.1189 16.2662C12.5364 16.4599 11.945 16.5582 11.3611 16.5582C10.7776 16.5582 10.1862 16.4599 9.6033 16.2662C9.00691 16.0681 8.52336 15.8492 8.16719 15.6155C7.75387 15.344 7.37983 15.0962 7.05545 14.8789C6.53658 14.5313 6.26768 14.4141 5.98965 14.4141C5.28146 14.4141 4.61982 14.5373 4.02281 14.7804C3.42393 15.0242 2.90547 15.3589 2.48176 15.7757C2.07697 16.1739 1.71623 16.6573 1.40951 17.2125C1.11381 17.7476 0.874425 18.3058 0.69821 18.8717C0.528021 19.4188 0.385678 20.0172 0.275128 20.6503C0.165409 21.278 0.0912245 21.8733 0.0544438 22.4202C0.0182865 22.9549 0 23.5114 0 24.0737C0 25.5353 0.451966 26.7185 1.34322 27.5912C2.22347 28.4523 3.38798 28.8889 4.80456 28.8889H17.9193C19.3354 28.8889 20.4999 28.4523 21.3804 27.5912C22.2719 26.7192 22.7238 25.5355 22.7238 24.0734C22.7236 23.5093 22.7051 22.9528 22.6688 22.4196ZM20.2799 26.4024C19.6983 26.9714 18.9261 27.2481 17.9191 27.2481H4.80456C3.79735 27.2481 3.02516 26.9714 2.44374 26.4026C1.87332 25.8444 1.59612 25.0824 1.59612 24.0737C1.59612 23.549 1.61295 23.031 1.64661 22.5336C1.67944 22.0457 1.74656 21.5098 1.8461 20.9402C1.94439 20.3778 2.06949 19.8499 2.21827 19.372C2.36103 18.9138 2.55574 18.4601 2.7972 18.023C3.02766 17.6064 3.29281 17.249 3.58539 16.9611C3.85907 16.6917 4.20401 16.4712 4.61047 16.3059C4.98638 16.153 5.40884 16.0692 5.86746 16.0566C5.92336 16.0872 6.02289 16.1455 6.18415 16.2536C6.51226 16.4734 6.89046 16.7242 7.30856 16.9987C7.77985 17.3076 8.38704 17.5866 9.11247 17.8273C9.85411 18.0738 10.6105 18.199 11.3613 18.199C12.1121 18.199 12.8687 18.0738 13.6099 17.8275C14.336 17.5864 14.9429 17.3076 15.4149 16.9983C15.8427 16.7171 16.2103 16.4736 16.5384 16.2536C16.6997 16.1457 16.7992 16.0872 16.8551 16.0566C17.3139 16.0692 17.7364 16.153 18.1125 16.3059C18.5188 16.4712 18.8637 16.6919 19.1374 16.9611C19.43 17.2488 19.6951 17.6062 19.9256 18.0232C20.1673 18.4601 20.3622 18.914 20.5047 19.3718C20.6537 19.8503 20.779 20.378 20.8771 20.94C20.9764 21.5106 21.0438 22.0468 21.0766 22.5339V22.5343C21.1105 23.0297 21.1275 23.5475 21.1277 24.0737C21.1275 25.0826 20.8503 25.8444 20.2799 26.4024Z"/>
</svg>
