<svg width="7" height="9" viewBox="0 0 7 9" xmlns="http://www.w3.org/2000/svg">
<path d="M1.33033 0.241352C1.20045 0.238686 1.07291 0.273826 0.965437 0.34194C0.857965 0.410054 0.775901 0.507776 0.730656 0.621433C0.68541 0.735089 0.679231 0.859062 0.712977 0.976148C0.746722 1.09323 0.818716 1.19755 0.918949 1.27468L4.74341 4.33262L0.918949 7.38948C0.849613 7.43704 0.791546 7.49743 0.748384 7.56691C0.705221 7.63638 0.677894 7.71345 0.668114 7.79325C0.658333 7.87304 0.666309 7.95384 0.691543 8.03062C0.716777 8.1074 0.758724 8.17852 0.814759 8.23947C0.870794 8.30042 0.939709 8.34986 1.01719 8.3848C1.09467 8.41974 1.17904 8.43936 1.26503 8.44246C1.35101 8.44555 1.43676 8.43209 1.51689 8.40283C1.59702 8.37356 1.66982 8.32917 1.73072 8.27244L6.10938 4.77581C6.17814 4.72104 6.23336 4.65307 6.27122 4.57645C6.30908 4.49984 6.32869 4.41645 6.32869 4.33208C6.32869 4.24771 6.30908 4.16432 6.27122 4.08771C6.23336 4.0111 6.17814 3.94305 6.10938 3.88828L1.73072 0.388298C1.62011 0.296599 1.47823 0.244466 1.33033 0.241218V0.241352Z"/>
</svg>
