<svg width="30" height="31" viewBox="0 0 30 31" xmlns="http://www.w3.org/2000/svg">
<path d="M29.7153 29.2585L21.9698 21.6368C23.9981 19.4331 25.2444 16.5187 25.2444 13.3116C25.2434 6.45127 19.5927 0.890625 12.6217 0.890625C5.65069 0.890625 0 6.45127 0 13.3116C0 20.172 5.65069 25.7327 12.6217 25.7327C15.6337 25.7327 18.3962 24.6909 20.5661 22.9589L28.3416 30.6107C28.7205 30.9839 29.3356 30.9839 29.7145 30.6107C30.0942 30.2375 30.0942 29.6317 29.7153 29.2585ZM12.6217 23.8216C6.72347 23.8216 1.94203 19.1162 1.94203 13.3116C1.94203 7.50713 6.72347 2.80167 12.6217 2.80167C18.52 2.80167 23.3014 7.50713 23.3014 13.3116C23.3014 19.1162 18.52 23.8216 12.6217 23.8216Z"/>
</svg>
