<svg width="27" height="28" viewBox="0 0 27 28" xmlns="http://www.w3.org/2000/svg">
<path d="M26.1788 25.1328L19.7528 18.4494C21.405 16.4852 22.3103 14.014 22.3103 11.4413C22.3103 5.43043 17.4199 0.540039 11.4091 0.540039C5.3982 0.540039 0.507812 5.43043 0.507812 11.4413C0.507812 17.4521 5.3982 22.3425 11.4091 22.3425C13.6656 22.3425 15.816 21.6619 17.6545 20.3699L24.1294 27.104C24.4 27.3851 24.764 27.54 25.1541 27.54C25.5233 27.54 25.8736 27.3993 26.1395 27.1433C26.7044 26.5997 26.7224 25.6982 26.1788 25.1328ZM11.4091 3.38384C15.852 3.38384 19.4665 6.99831 19.4665 11.4413C19.4665 15.8842 15.852 19.4987 11.4091 19.4987C6.96609 19.4987 3.35161 15.8842 3.35161 11.4413C3.35161 6.99831 6.96609 3.38384 11.4091 3.38384Z" />
</svg>
