<svg width="40" height="45" viewBox="0 0 40 45" xmlns="http://www.w3.org/2000/svg">
<path d="M9.08203 31.6956C8.66211 31.6956 8.24219 31.5237 7.82227 31.3518C7.23438 31.0081 6.81445 30.4065 6.64648 29.8049L0.935547 7.80495C0.767578 7.11745 0.851562 6.42994 1.1875 5.82838C1.52344 5.31276 2.02734 4.88307 2.69922 4.62526L17.5645 0.586195C18.9082 0.242445 20.252 1.01588 20.6719 2.39088L26.3828 24.3909C26.7188 25.7659 25.9629 27.0549 24.6191 27.5706L9.75391 31.6096C9.50195 31.6096 9.33398 31.6956 9.08203 31.6956ZM3.03516 5.74244C2.69922 5.91432 2.36328 6.17213 2.19531 6.42995C2.02734 6.68776 1.94336 7.03151 2.02734 7.4612H2.11133L7.82227 29.4612C7.99023 30.1487 8.74609 30.5784 9.41797 30.4065L24.2832 26.3674C25.0391 26.1096 25.459 25.4221 25.207 24.7346L19.4961 2.73463C19.3281 1.96119 18.5723 1.53151 17.9004 1.70338L3.03516 5.74244Z"/>
<path d="M24.6225 36.5082C24.4546 36.5082 24.2026 36.4223 24.0347 36.4223C23.9507 36.4223 23.9507 36.4223 23.9507 36.4223L9.16942 32.2973C8.58153 32.1254 7.99364 31.7817 7.6577 31.1801C7.48973 30.8363 7.57372 30.4926 7.82567 30.3207C8.16161 30.1488 8.49754 30.2348 8.66551 30.4926C8.83348 30.8363 9.08543 31.0942 9.42137 31.0942H9.50536L24.2866 35.2192C25.0425 35.391 25.7143 35.0473 25.8823 34.2738L31.6772 12.2739C31.9292 11.5864 31.4253 10.8129 30.7534 10.641L21.1792 7.97698C20.9272 7.89104 20.6753 7.54729 20.7593 7.20354C20.8432 6.85979 21.1792 6.68792 21.5151 6.77385L31.0893 9.43792C32.3491 9.78167 33.1889 11.2426 32.853 12.6176L27.0581 34.6176C26.8061 35.7348 25.7983 36.5082 24.6225 36.5082Z"/>
<path d="M20.9238 44.5C20.3359 44.5 19.6641 44.2422 19.1602 43.7266L8.24219 32.6406C8.24219 32.6406 8.24219 32.6406 8.24219 32.5547C7.73828 32.0391 7.57031 31.5234 7.57031 30.8359C7.57031 30.4922 7.82227 30.2344 8.1582 30.2344C8.49414 30.2344 8.74609 30.4922 8.74609 30.8359C8.74609 31.1797 8.83008 31.5234 9.08203 31.7812L20 42.8672C20.5039 43.3828 21.3438 43.3828 21.8477 42.8672L37.5527 26.7969C38.1406 26.2812 38.1406 25.4219 37.5527 24.9062L30.582 17.6875C30.4141 17.4297 30.4141 17.0859 30.582 16.8281C30.834 16.5703 31.2539 16.5703 31.4219 16.8281L38.3926 24.0469C39.4004 25.0781 39.4004 26.625 38.3926 27.6562L22.6875 43.7266C22.1836 44.2422 21.5957 44.5 20.9238 44.5Z"/>
</svg>
