<svg width="46" height="25" viewBox="0 0 46 25" xmlns="http://www.w3.org/2000/svg">
<path d="M44.7931 8.88243H41.6473V5.18183C41.6473 4.06371 40.8335 3.15403 39.833 3.15403H37.7007C37.5319 3.15403 37.369 3.18187 37.2139 3.2303V2.48385C37.2139 1.36574 36.4001 0.456055 35.3997 0.456055H31.8772C30.8768 0.456055 30.0629 1.36564 30.0629 2.48385V8.88243H15.9407V2.48385C15.9407 1.36574 15.1269 0.456055 14.1264 0.456055H10.604C9.6036 0.456055 8.7897 1.36564 8.7897 2.48385V3.2303C8.63453 3.18187 8.47173 3.15403 8.30297 3.15403H6.1708C5.17041 3.15403 4.3565 4.06362 4.3565 5.18183V8.88243H1.21061C0.843965 8.88243 0.546875 9.21457 0.546875 9.62427V15.3754C0.546875 15.7851 0.843965 16.1173 1.21061 16.1173H4.3565V19.8179C4.3565 20.936 5.17032 21.8456 6.1708 21.8456H8.30306C8.47182 21.8456 8.63471 21.8177 8.78979 21.7694V22.5158C8.78979 23.6339 9.6036 24.5436 10.6041 24.5436H14.1265C15.1269 24.5436 15.9408 23.6339 15.9408 22.5158V16.1173H30.0631V22.5158C30.0631 23.6339 30.877 24.5436 31.8774 24.5436H35.3998C36.4002 24.5436 37.2141 23.634 37.2141 22.5158V21.7694C37.3693 21.8178 37.5321 21.8456 37.7008 21.8456H39.8332C40.8336 21.8456 41.6475 20.9361 41.6475 19.8179V16.1173H44.7933C45.1599 16.1173 45.457 15.7851 45.457 15.3754V9.62427C45.4569 9.21457 45.1598 8.88243 44.7931 8.88243ZM4.3565 14.6336H1.87444V10.3661H4.3565V14.6336ZM8.78979 19.818C8.78979 20.1178 8.57146 20.362 8.30306 20.362H6.1708C5.90248 20.362 5.68407 20.1179 5.68407 19.818V15.3754V9.62427V5.18173C5.68407 4.88174 5.90248 4.63772 6.1708 4.63772H8.30306C8.57146 4.63772 8.78979 4.88174 8.78979 5.18173V19.818ZM14.6132 9.62437V15.3755V22.5158C14.6132 22.8158 14.3948 23.0598 14.1264 23.0598H10.604C10.3357 23.0598 10.1173 22.8158 10.1173 22.5158V19.8179V5.18173V2.48385C10.1173 2.18386 10.3357 1.93984 10.604 1.93984H14.1264C14.3948 1.93984 14.6132 2.18386 14.6132 2.48385V9.62437ZM30.0629 14.6336H15.9407V10.3661H30.0629V14.6336ZM35.8865 5.18163V19.8179V22.5159C35.8865 22.8159 35.6681 23.0599 35.3997 23.0599H31.8773C31.609 23.0599 31.3906 22.8159 31.3906 22.5159V15.3755V9.62437V2.48395C31.3906 2.18395 31.609 1.93994 31.8773 1.93994H35.3997C35.6681 1.93994 35.8865 2.18395 35.8865 2.48395V5.18163ZM40.3198 9.62427V15.3754V19.818C40.3198 20.1179 40.1014 20.362 39.8331 20.362H37.7008C37.4324 20.362 37.214 20.1179 37.214 19.818V5.18173C37.214 4.88174 37.4324 4.63772 37.7008 4.63772H39.8331C40.1014 4.63772 40.3198 4.88174 40.3198 5.18173V9.62427ZM44.1293 14.6336H41.6473V10.3661H44.1293V14.6336Z"/>
</svg>
