<svg width="35" height="35" viewBox="0 0 35 35" xmlns="http://www.w3.org/2000/svg">
<path d="M30.1129 3.9002H26.5212V1.5002C26.5212 1.28802 26.4349 1.08454 26.2811 0.93451C26.1273 0.784481 25.9187 0.700195 25.7013 0.700195C25.4838 0.700195 25.2752 0.784481 25.1214 0.93451C24.9676 1.08454 24.8813 1.28802 24.8813 1.5002V3.9002H10.1213V1.5002C10.1213 1.28802 10.0349 1.08454 9.88108 0.93451C9.7273 0.784481 9.51873 0.700195 9.30125 0.700195C9.08377 0.700195 8.8752 0.784481 8.72142 0.93451C8.56764 1.08454 8.48125 1.28802 8.48125 1.5002V3.9002H4.88965C3.66743 3.9002 2.49526 4.37388 1.63102 5.21704C0.766777 6.06021 0.28125 7.20378 0.28125 8.39619V29.8042C0.28125 30.9966 0.766777 32.1402 1.63102 32.9833C2.49526 33.8265 3.66743 34.3002 4.88965 34.3002H30.1129C31.3351 34.3002 32.5072 33.8265 33.3715 32.9833C34.2357 32.1402 34.7212 30.9966 34.7212 29.8042V8.39619C34.7212 7.20378 34.2357 6.06021 33.3715 5.21704C32.5072 4.37388 31.3351 3.9002 30.1129 3.9002ZM4.88965 5.5002H30.1129C30.9001 5.5002 31.6551 5.80531 32.2118 6.34841C32.7685 6.89152 33.0812 7.62813 33.0812 8.39619V10.3002H1.92125V8.39619C1.92125 7.62813 2.23399 6.89152 2.79067 6.34841C3.34736 5.80531 4.10238 5.5002 4.88965 5.5002ZM30.1129 32.7002H4.88965C4.10238 32.7002 3.34736 32.3951 2.79067 31.852C2.23399 31.3089 1.92125 30.5723 1.92125 29.8042V11.9002H33.0812V29.8042C33.0812 30.5723 32.7685 31.3089 32.2118 31.852C31.6551 32.3951 30.9001 32.7002 30.1129 32.7002Z"/>
</svg>
