<svg width="25" height="26" viewBox="0 0 25 26" fill="none" xmlns="http://www.w3.org/2000/svg">
<path d="M5.09388 17.1183C7.55969 20.0659 10.528 22.3867 13.9159 24.0288C15.2058 24.6401 16.9308 25.3653 18.8527 25.4896C18.9718 25.4948 19.0858 25.5 19.2049 25.5C20.4948 25.5 21.5309 25.0545 22.3753 24.1376C22.3805 24.1324 22.3908 24.122 22.396 24.1117C22.6964 23.7491 23.0383 23.4227 23.3958 23.0756C23.6393 22.8425 23.8879 22.599 24.1262 22.3504C25.2296 21.2004 25.2296 19.7395 24.1158 18.6258L21.0025 15.5124C20.4741 14.9633 19.8421 14.6732 19.179 14.6732C18.516 14.6732 17.8788 14.9633 17.3349 15.5073L15.4803 17.3618C15.3094 17.2634 15.1332 17.1753 14.9675 17.0924C14.7603 16.9888 14.5686 16.8904 14.3976 16.7816C12.7089 15.7093 11.1755 14.3106 9.7095 12.5131C8.96872 11.5754 8.47142 10.788 8.12434 9.98508C8.61129 9.54476 9.06715 9.08371 9.50747 8.63303C9.66288 8.47244 9.82347 8.31185 9.98406 8.15126C10.5435 7.59179 10.844 6.94426 10.844 6.28637C10.844 5.62847 10.5487 4.98094 9.98406 4.42147L8.44034 2.87775C8.25903 2.69644 8.08808 2.52031 7.91195 2.339C7.57005 1.98674 7.21261 1.62412 6.86035 1.29776C6.32679 0.774554 5.69997 0.5 5.0369 0.5C4.379 0.5 3.74701 0.774555 3.19272 1.30294L1.2553 3.24036C0.55078 3.94488 0.151899 4.79963 0.069015 5.78906C-0.0294102 7.02714 0.198522 8.34293 0.789073 9.93328C1.69562 12.3939 3.06321 14.6784 5.09388 17.1183ZM1.333 5.89784C1.39517 5.20887 1.65936 4.63386 2.15667 4.13655L4.08373 2.20949C4.38418 1.91939 4.71572 1.76917 5.0369 1.76917C5.35289 1.76917 5.67407 1.91939 5.96935 2.21985C6.31642 2.54103 6.64278 2.87775 6.99504 3.23518C7.17117 3.41649 7.35248 3.5978 7.53379 3.78429L9.07751 5.32801C9.39869 5.64919 9.56446 5.97555 9.56446 6.29673C9.56446 6.6179 9.39869 6.94426 9.07751 7.26544C8.91692 7.42603 8.75633 7.59179 8.59575 7.75238C8.11398 8.23933 7.6633 8.70037 7.16599 9.1407C7.15563 9.15106 7.15045 9.15624 7.14009 9.1666C6.71013 9.59656 6.77747 10.0058 6.88107 10.3166C6.88625 10.3322 6.89144 10.3425 6.89662 10.3581C7.2955 11.3164 7.84979 12.2281 8.71489 13.316C10.269 15.2327 11.9059 16.7194 13.7087 17.8643C13.9314 18.0093 14.1697 18.1233 14.3925 18.2373C14.5997 18.3409 14.7914 18.4393 14.9623 18.5481C14.983 18.5584 14.9986 18.5688 15.0193 18.5792C15.1902 18.6672 15.356 18.7087 15.5218 18.7087C15.9362 18.7087 16.2056 18.4445 16.2936 18.3564L18.2311 16.419C18.5315 16.1185 18.8579 15.9579 19.179 15.9579C19.5727 15.9579 19.8939 16.2014 20.096 16.419L23.2197 19.5375C23.8413 20.1591 23.8361 20.8326 23.2041 21.4905C22.9865 21.7236 22.7586 21.9463 22.5151 22.1794C22.1525 22.5317 21.7744 22.8943 21.4325 23.3036C20.8367 23.9459 20.127 24.2464 19.2101 24.2464C19.1221 24.2464 19.0288 24.2412 18.9408 24.236C17.2416 24.1272 15.6616 23.4642 14.4754 22.8995C11.2532 21.3402 8.4248 19.1283 6.07813 16.3206C4.14589 13.9946 2.84564 11.8293 1.98572 9.5085C1.45215 8.08392 1.25012 6.93908 1.333 5.89784Z" fill="#F2F2F2"/>
</svg>
