<svg width="16" height="14" viewBox="0 0 16 14" xmlns="http://www.w3.org/2000/svg">
<path d="M0.995261 6.94833L4.41578 8.2136L5.74919 12.4695C5.80717 12.7571 6.15502 12.8146 6.38692 12.642L8.30008 11.0892C8.474 10.9167 8.76388 10.9167 8.99578 11.0892L12.4163 13.5622C12.6482 13.7348 12.996 13.6197 13.054 13.3322L15.6049 1.25462C15.6629 0.967058 15.373 0.6795 15.0831 0.794524L0.995261 6.20067C0.647413 6.3157 0.647413 6.8333 0.995261 6.94833ZM5.57528 7.58096L12.3003 3.4976C12.4163 3.44008 12.5322 3.61262 12.4163 3.67013L6.90869 8.78872C6.73476 8.96126 6.56083 9.1913 6.56083 9.47887L6.38692 10.8592C6.38692 11.0317 6.09704 11.0892 6.03907 10.8592L5.34336 8.32862C5.16944 8.04106 5.2854 7.69599 5.57528 7.58096Z"/>
</svg>
