<svg width="25" height="26" viewBox="0 0 25 26" fill="none" xmlns="http://www.w3.org/2000/svg">
<path d="M19.0312 2.45312V2.95312H19.5312H21.7773C23.2782 2.95312 24.5 4.17492 24.5 5.67578V22.2773C24.5 23.7782 23.2782 25 21.7773 25H3.22266C1.7218 25 0.5 23.7782 0.5 22.2773V5.67578C0.5 4.17492 1.7218 2.95312 3.22266 2.95312H5.46875H5.96875V2.45312V1.28125C5.96875 1.12593 6.09467 1 6.25 1C6.40533 1 6.53125 1.12593 6.53125 1.28125V2.45312V2.95312H7.03125H17.9688H18.4688V2.45312V1.28125C18.4688 1.12593 18.5947 1 18.75 1C18.9053 1 19.0312 1.12593 19.0312 1.28125V2.45312ZM5.96875 4.01562V3.51562H5.46875H3.22266C2.03108 3.51562 1.0625 4.48421 1.0625 5.67578V7.53125V8.03125H1.5625H23.4375H23.9375V7.53125V5.67578C23.9375 4.48421 22.9689 3.51562 21.7773 3.51562H19.5312H19.0312V4.01562V4.79688C19.0312 4.9522 18.9053 5.07812 18.75 5.07812C18.5947 5.07812 18.4688 4.9522 18.4688 4.79688V4.01562V3.51562H17.9688H7.03125H6.53125V4.01562V4.79688C6.53125 4.9522 6.40533 5.07812 6.25 5.07812C6.09467 5.07812 5.96875 4.9522 5.96875 4.79688V4.01562ZM1.5625 8.59375H1.0625V9.09375V22.2773C1.0625 23.4689 2.03108 24.4375 3.22266 24.4375H21.7773C22.9689 24.4375 23.9375 23.4689 23.9375 22.2773V9.09375V8.59375H23.4375H1.5625Z" fill="#F2F2F2" stroke="#F2F2F2"/>
</svg>
