<svg width="43" height="37" viewBox="0 0 43 37" xmlns="http://www.w3.org/2000/svg">
<path d="M25.4607 14.1133C26.8154 14.1133 27.9136 13.0151 27.9136 11.6604C27.9136 10.3057 26.8154 9.20752 25.4607 9.20752C24.106 9.20752 23.0078 10.3057 23.0078 11.6604C23.0078 13.0151 24.106 14.1133 25.4607 14.1133Z" />
<path d="M39.5522 8.23571C40.6813 8.23571 41.5965 7.32041 41.5965 6.19134C41.5965 5.06227 40.6813 4.14697 39.5522 4.14697C38.4231 4.14697 37.5078 5.06227 37.5078 6.19134C37.5078 7.32041 38.4231 8.23571 39.5522 8.23571Z" />
<path d="M11.5209 8.23571C12.65 8.23571 13.5653 7.32041 13.5653 6.19134C13.5653 5.06227 12.65 4.14697 11.5209 4.14697C10.3919 4.14697 9.47656 5.06227 9.47656 6.19134C9.47656 7.32041 10.3919 8.23571 11.5209 8.23571Z" />
<path d="M25.8631 23.5531L21.988 24.9803C21.8474 25.0319 21.7025 25.0599 21.5575 25.0599C21.043 25.0599 20.5559 24.7277 20.3829 24.2082C20.177 23.5811 20.4999 22.898 21.1226 22.6641L24.1554 21.5126L22.9479 18.756L20.1166 22.2896C19.9716 22.4675 19.9057 22.6965 19.9294 22.926L21.3098 34.2V34.2142C21.3148 34.2658 21.3192 34.3125 21.3192 34.3592C21.3192 34.9956 20.87 35.548 20.2286 35.6601C19.4939 35.7913 18.8015 35.2905 18.6938 34.5558L17.1684 24.2318L14.8379 34.2422C14.6836 34.9023 14.0516 35.3372 13.3822 35.2482C13.3773 35.2482 13.3773 35.2482 13.3729 35.2482L13.2839 35.2389C12.8161 35.1779 12.446 34.8787 12.2637 34.4855C12.1511 34.2422 12.1094 33.966 12.1654 33.6805L13.7798 25.3224C14.6924 20.2633 16.784 17.1372 17.5983 16.0747C17.8043 15.7984 17.9306 15.6628 17.9306 15.6628C17.5517 14.2263 17.0739 11.4417 16.8494 10.0893C16.7697 9.61207 16.9619 9.13434 17.3452 8.83946L21.4965 5.67105C21.7211 5.50247 21.9831 5.41846 22.2406 5.41846C22.6195 5.41846 22.9896 5.59143 23.2329 5.91925C23.626 6.46233 23.5184 7.22011 22.9847 7.62262L19.5543 10.2249C19.6197 11.3061 20.0881 12.5553 20.3593 13.2011C20.4763 13.4867 20.6822 13.7206 20.9441 13.8798L21.9034 14.4602C22.9797 14.8814 24 16.1405 24.4678 16.777C24.6315 17.0016 24.7627 17.2498 24.856 17.5166L26.5078 22.1776C26.7099 22.7344 26.4199 23.3521 25.8631 23.5531Z" />
<path d="M39.8841 16.1074L36.6548 17.2957C36.5378 17.338 36.4159 17.361 36.2989 17.361C35.8635 17.361 35.461 17.0848 35.316 16.6499C35.143 16.1255 35.4143 15.5594 35.9288 15.3628L38.4608 14.3985L37.4499 12.1054L35.0914 15.0493C34.9745 15.1992 34.9184 15.3908 34.9371 15.583L36.0886 24.9757C36.0936 25.0223 36.098 25.0646 36.098 25.1113C36.098 25.13 36.098 25.1442 36.093 25.1629C36.0743 25.6681 35.6998 26.1085 35.1897 26.1975C34.5769 26.3051 33.9965 25.8839 33.9075 25.2711L32.6347 16.6692L30.6924 25.0136C30.5612 25.566 30.0324 25.9306 29.4712 25.8515L29.4009 25.8422C28.7738 25.7582 28.3477 25.1635 28.4647 24.5457L29.8127 17.5774C30.6315 13.0285 32.6017 10.3515 33.1404 9.6915C33.2244 9.58388 33.276 9.52787 33.276 9.52787C33.22 9.30767 33.1591 9.05068 33.0937 8.76953C33.0048 8.35275 32.9114 7.88985 32.8175 7.41705C32.6352 6.47147 32.471 5.49843 32.3683 4.88507C32.303 4.48751 32.4617 4.085 32.7846 3.84119L36.2429 1.19719C36.4252 1.05661 36.6454 0.986328 36.8607 0.986328C37.1792 0.986328 37.4878 1.1313 37.6893 1.4075C38.0215 1.85668 37.9282 2.48872 37.4834 2.82533L34.6285 4.99215C34.6801 5.89545 35.0684 6.93438 35.2979 7.47691C35.3962 7.71083 35.5648 7.90742 35.7844 8.03866L36.5801 8.52518C37.4834 8.87606 38.3301 9.92433 38.7189 10.4531C38.8595 10.6448 38.9671 10.8507 39.0467 11.0709L40.4228 14.9554C40.5908 15.4194 40.347 15.9339 39.8841 16.1074Z" />
<path d="M11.8523 16.1075L8.62351 17.2958C8.50655 17.338 8.38464 17.3611 8.26768 17.3611C7.83717 17.3611 7.42972 17.0849 7.28476 16.65C7.11178 16.1256 7.38305 15.5594 7.89757 15.3629L10.4296 14.3986L9.41863 12.1055L7.06017 15.0493C6.94321 15.1992 6.8872 15.3909 6.90587 15.5831L8.05737 24.9757C8.06231 25.0224 8.0667 25.0647 8.0667 25.1114C8.0667 25.1954 8.05737 25.2843 8.03375 25.364C7.9404 25.7807 7.60325 26.1173 7.15846 26.197C6.54564 26.3046 5.96523 25.8834 5.87627 25.2706L4.60341 16.6687L2.66118 25.0131C2.52994 25.5655 2.00114 25.9301 1.43994 25.851L1.36965 25.8417C0.742559 25.7577 0.316443 25.163 0.433406 24.5452L1.78149 17.5769C2.51621 13.5145 4.16357 10.9452 4.88895 9.97216C5.10915 9.67729 5.24478 9.52738 5.24478 9.52738C5.09487 8.95629 4.9219 8.12822 4.7676 7.29521C4.75826 7.25787 4.75332 7.21559 4.74399 7.17825V7.17331C4.58035 6.30295 4.43044 5.44633 4.34148 4.88458C4.2712 4.48702 4.43044 4.08452 4.75332 3.84071L8.21167 1.1967C8.39398 1.05613 8.61417 0.98584 8.82943 0.98584C9.14792 0.98584 9.45652 1.13081 9.65805 1.40701C9.99026 1.85619 9.89691 2.48823 9.45213 2.82484L6.59726 4.99166C6.64888 5.89496 7.03711 6.93389 7.26664 7.47642C7.36493 7.71034 7.53351 7.90693 7.75316 8.03817L8.54883 8.52469C9.45213 8.87557 10.2989 9.92384 10.6876 10.4526C10.8282 10.6443 10.9358 10.8502 11.0155 11.0704L12.3916 14.9549C12.559 15.4194 12.3158 15.9339 11.8523 16.1075Z" />
<path d="M21.3125 34.2134C21.3125 34.2629 21.3179 34.3123 21.3179 34.3562C21.3179 34.9932 20.8677 35.5478 20.2307 35.6576C19.5663 35.7784 18.9348 35.3776 18.7426 34.7571C18.7645 34.7516 18.7865 34.7516 18.8085 34.7461C19.4509 34.6308 19.9012 34.0817 19.9012 33.4447C19.9012 33.3953 19.8957 33.3513 19.8902 33.2964V33.2854L18.512 22.012C18.49 21.7814 18.5559 21.5508 18.6987 21.3751L21.0192 18.5724C21.5634 17.9151 22.61 18.0622 22.9516 18.8447L22.9642 18.8738L20.9171 21.2872L20.1154 22.2866C19.9726 22.4678 19.9067 22.6984 19.9287 22.9236L20.0769 24.1371L21.3125 34.197V34.2134Z" />
<path d="M25.8615 23.5499L21.9848 24.9776C21.8475 25.0325 21.6992 25.06 21.5565 25.06C21.0403 25.06 20.5516 24.725 20.3813 24.2088C20.3704 24.1814 20.3649 24.1484 20.3594 24.121C20.4308 24.11 20.4967 24.088 20.568 24.0661L24.4448 22.6384C24.9994 22.4352 25.2905 21.8202 25.0873 21.2601L23.4344 16.5981C23.3411 16.3345 23.2093 16.0874 23.0501 15.8622C22.759 15.4724 22.2648 14.8464 21.6773 14.3247L21.9024 14.462C22.9787 14.8793 24 16.1423 24.4668 16.7738C24.6315 16.9989 24.7633 17.2515 24.8567 17.5151L26.504 22.1771C26.7072 22.7317 26.4162 23.3522 25.8615 23.5499Z" />
<path d="M14.9552 27.0924C14.7339 27.0407 14.5148 27.1709 14.4659 27.3834L13.6269 31.2986C13.578 31.5111 13.7186 31.7253 13.9399 31.7774C14.1612 31.829 14.3803 31.6989 14.4292 31.4864L15.2682 27.5712C15.3171 27.3587 15.1765 27.144 14.9552 27.0924Z" fill="#FDFFFC"/>
</svg>
