<svg width="23" height="14" viewBox="0 0 23 14" xmlns="http://www.w3.org/2000/svg">
<path fill-rule="evenodd" clip-rule="evenodd" d="M3.81375 0.114258H1.47988C0.813063 0.114258 0.679688 0.437941 0.679688 0.794754C0.679688 1.43213 1.47094 4.59317 4.36381 8.77392C6.29244 11.6291 9.00962 13.1767 11.4822 13.1767C12.9657 13.1767 13.1493 12.833 13.1493 12.2409V10.083C13.1493 9.39544 13.2898 9.25822 13.7595 9.25822C14.1057 9.25822 14.6991 9.43669 16.0837 10.8133C17.6662 12.4448 17.9271 13.1767 18.8171 13.1767H21.151C21.8179 13.1767 22.1512 12.833 21.9589 12.1546C21.7484 11.4785 20.9929 10.4975 19.9904 9.33479C19.4464 8.67196 18.6304 7.9582 18.3832 7.60126C18.0371 7.14242 18.1359 6.93843 18.3832 6.53063C18.3832 6.53063 21.2267 2.4008 21.5234 0.998812C21.6717 0.488924 21.5234 0.114258 20.8176 0.114258H18.4837C17.8903 0.114258 17.6167 0.437941 17.4683 0.794754C17.4683 0.794754 16.2815 3.77739 14.6002 5.71485C14.0562 6.27565 13.8089 6.45413 13.5122 6.45413C13.3639 6.45413 13.1491 6.27565 13.1491 5.76589V0.998812C13.1491 0.386959 12.9769 0.114258 12.4823 0.114258H8.81481C8.444 0.114258 8.22094 0.398173 8.22094 0.66733C8.22094 1.24728 9.06163 1.38108 9.14825 3.01259V6.55609C9.14825 7.33294 9.01212 7.47384 8.71544 7.47384C7.92425 7.47384 5.99962 4.47786 4.85819 1.04967C4.63462 0.383414 4.41025 0.114258 3.81375 0.114258Z"/>
</svg>
