<svg width="16" height="17" viewBox="0 0 16 17" xmlns="http://www.w3.org/2000/svg">
<path d="M13.5702 2.81373C12.1005 1.36086 10.141 0.553711 8.07255 0.553711C3.77244 0.553711 0.288806 3.99754 0.288806 8.24853C0.288806 9.59377 0.669829 10.939 1.32301 12.069L0.234375 16.051L4.37119 14.9748C5.51426 15.5667 6.76619 15.8895 8.07255 15.8895C12.3727 15.8895 15.8563 12.4457 15.8563 8.19472C15.8019 6.20375 15.0398 4.26659 13.5702 2.81373ZM11.8283 10.9928C11.6651 11.4233 10.903 11.8538 10.522 11.9076C10.1954 11.9614 9.75994 11.9614 9.32449 11.8538C9.05233 11.7462 8.6713 11.6386 8.23585 11.4233C6.27631 10.6162 5.02437 8.67901 4.91551 8.51758C4.80665 8.40996 4.09903 7.49519 4.09903 6.52661C4.09903 5.55803 4.58892 5.12755 4.75221 4.91231C4.91551 4.69707 5.13324 4.69707 5.29653 4.69707C5.4054 4.69707 5.56869 4.69707 5.67755 4.69707C5.78642 4.69707 5.94971 4.64326 6.11301 5.01993C6.2763 5.3966 6.65733 6.36518 6.71176 6.41899C6.76619 6.52661 6.76619 6.63423 6.71176 6.74185C6.65733 6.84947 6.60289 6.95709 6.49403 7.06471C6.38517 7.17233 6.2763 7.33376 6.22187 7.38757C6.11301 7.49519 6.00415 7.60281 6.11301 7.76424C6.22187 7.97948 6.6029 8.57138 7.20165 9.10948C7.96369 9.7552 8.56244 9.97044 8.78017 10.0781C8.9979 10.1857 9.10676 10.1319 9.21562 10.0243C9.32448 9.91663 9.70551 9.48615 9.81437 9.27092C9.92324 9.05568 10.0865 9.10948 10.2498 9.16329C10.4131 9.2171 11.3929 9.70139 11.5562 9.80901C11.7739 9.91663 11.8828 9.97044 11.9372 10.0243C11.9916 10.1857 11.9916 10.5624 11.8283 10.9928Z"/>
</svg>
