<svg width="23" height="27" viewBox="0 0 23 27" xmlns="http://www.w3.org/2000/svg">
<path d="M14.4065 18.3872C14.4057 18.2529 14.3662 18.1131 14.3164 17.9875C14.2501 17.8224 14.1079 17.7402 13.9294 17.7229C13.72 17.7023 13.5526 17.7868 13.4009 17.9211C13.3401 17.9741 13.3124 18.053 13.3124 18.053L13.3156 22.3164V22.4214C13.3156 22.4214 13.3519 22.4704 13.3575 22.4767C13.4807 22.6102 13.6245 22.7161 13.8085 22.754C14.1118 22.8164 14.3259 22.69 14.3852 22.4088C14.4002 22.3385 14.4089 22.2658 14.4089 22.1939C14.4104 20.9245 14.4128 19.6558 14.4065 18.3872ZM14.4065 18.3872C14.4057 18.2529 14.3662 18.1131 14.3164 17.9875C14.2501 17.8224 14.1079 17.7402 13.9294 17.7229C13.72 17.7023 13.5526 17.7868 13.4009 17.9211C13.3401 17.9741 13.3124 18.053 13.3124 18.053L13.3156 22.3164V22.4214C13.3156 22.4214 13.3519 22.4704 13.3575 22.4767C13.4807 22.6102 13.6245 22.7161 13.8085 22.754C14.1118 22.8164 14.3259 22.69 14.3852 22.4088C14.4002 22.3385 14.4089 22.2658 14.4089 22.1939C14.4104 20.9245 14.4128 19.6558 14.4065 18.3872ZM19.1801 11.9579C14.1348 11.8497 9.08704 11.8497 4.0409 11.9579C2.2904 11.995 0.890625 13.4264 0.890625 15.1777V23.0581C0.890625 24.8102 2.2904 26.2416 4.0409 26.2787C9.08704 26.3869 14.1348 26.3869 19.1801 26.2787C20.9314 26.2416 22.3312 24.8102 22.3312 23.0581V15.1777C22.3312 13.4265 20.9314 11.995 19.1801 11.9579ZM5.52283 23.7762H4.06776V15.5506H2.56135V14.1745H7.03241V15.5474H5.52283V23.7762ZM10.7301 20.362V23.777H9.44172V22.9965C9.39512 23.0463 9.36905 23.0731 9.34456 23.1008C9.06729 23.4136 8.75289 23.6743 8.3516 23.8125C8.1557 23.8796 7.95427 23.9026 7.74809 23.867C7.46687 23.8204 7.27808 23.6585 7.16433 23.4025C7.05847 23.1663 7.03162 22.9135 7.03083 22.6592C7.02767 21.7192 7.02925 16.7441 7.02925 16.6959H8.31448C8.31685 16.7394 8.32159 20.3107 8.32238 22.0525C8.32238 22.1473 8.32317 22.2445 8.34213 22.3369C8.38952 22.5707 8.56884 22.671 8.79397 22.5889C9.05307 22.4941 9.25056 22.3156 9.41644 22.1015C9.44093 22.0707 9.44093 22.0154 9.44093 21.9712V16.688L10.7301 16.6849C10.7301 16.685 10.7301 19.1787 10.7301 20.362ZM15.6317 23.0944C15.4595 23.6126 15.0803 23.8765 14.5353 23.871C14.0921 23.867 13.7327 23.6908 13.4364 23.3693C13.4033 23.3338 13.3116 23.2366 13.3116 23.2366V23.7754H12.0209V14.1737H13.3116C13.3116 15.1958 13.3116 17.3342 13.3116 17.3342C13.3116 17.3342 13.3843 17.1889 13.4507 17.1138C13.6505 16.8903 13.8938 16.7173 14.194 16.6414C14.6893 16.5174 15.2604 16.6707 15.5322 17.2497C15.6925 17.5917 15.7375 17.9567 15.7375 18.3279C15.7399 19.6701 15.7399 21.0122 15.7383 22.3543C15.7375 22.6055 15.7115 22.8536 15.6317 23.0944ZM20.399 22.8244C20.1754 23.4792 19.7133 23.8426 19.0355 23.9421C18.6153 24.0037 18.199 23.9951 17.8048 23.8165C17.2653 23.5732 16.9596 23.1332 16.8284 22.5732C16.7676 22.3125 16.7376 22.0392 16.7344 21.7714C16.7242 20.72 16.7289 19.6678 16.7313 18.6164C16.7321 18.0666 16.8632 17.5594 17.24 17.1384C17.6697 16.6573 18.2195 16.478 18.8475 16.5183C19.0363 16.5301 19.2291 16.5609 19.4084 16.6202C20.019 16.8208 20.3453 17.2782 20.4732 17.8849C20.5222 18.1187 20.5404 18.3612 20.5443 18.6006C20.5546 19.1614 20.5404 20.3977 20.5404 20.3977H18.0687V22.1695C18.0687 22.4878 18.3262 22.7454 18.6445 22.7454C18.9621 22.7454 19.2196 22.4878 19.2196 22.1695V21.2587H20.5475C20.5475 21.2586 20.5672 22.3338 20.399 22.8244ZM19.2196 18.3043C19.2196 17.9868 18.9621 17.7285 18.6445 17.7285C18.3262 17.7285 18.0687 17.9868 18.0687 18.3043V19.2989H19.2196V18.3043ZM14.3164 17.9876C14.2501 17.8225 14.1079 17.7403 13.9294 17.7229C13.72 17.7024 13.5526 17.7869 13.4009 17.9212C13.3401 17.9741 13.3124 18.0531 13.3124 18.0531L13.3156 22.3164V22.4215C13.3156 22.4215 13.3519 22.4705 13.3575 22.4768C13.4807 22.6103 13.6245 22.7161 13.8085 22.7541C14.1118 22.8165 14.3259 22.6901 14.3852 22.4089C14.4002 22.3385 14.4089 22.2659 14.4089 22.194C14.4104 20.9246 14.4128 19.6559 14.4065 18.3873C14.4057 18.2529 14.3662 18.1131 14.3164 17.9876Z" />
<path d="M17.6153 2.8457L17.615 9.97443H16.294L16.2956 9.20859C16.1495 9.35244 16.0249 9.48681 15.8879 9.60751C15.6451 9.82142 15.37 9.98091 15.0483 10.0439C14.5543 10.1405 14.1336 9.98431 13.9761 9.47274C13.9236 9.30235 13.892 9.11869 13.8906 8.9408V2.8457H15.2016V8.28215C15.2016 8.35419 15.2074 8.42702 15.22 8.49764C15.2598 8.72167 15.4254 8.82713 15.6411 8.75232C15.9041 8.66132 16.1047 8.47924 16.275 8.26469C16.2992 8.23404 16.2948 8.17685 16.2948 8.1319V2.8457H17.6153Z" />
<path d="M6.68755 4.08449C6.4008 2.8758 5.80005 0.324219 5.80005 0.324219H4.29688C4.29688 0.324219 5.45177 4.1544 5.96823 5.86257C5.98679 5.92434 5.99532 5.9914 5.99532 6.0561L5.99477 9.97294H7.38088L7.38033 6.0561C7.38033 5.9914 7.38886 5.92434 7.40742 5.86257C7.92388 4.1544 9.07878 0.324219 9.07878 0.324219H7.5756C7.5756 0.324219 6.97477 2.8758 6.6881 4.08449H6.68755Z" />
<path d="M10.8914 2.66699C9.84682 2.66699 9 3.51381 9 4.55842V8.26C9 9.30462 9.84682 10.1514 10.8914 10.1514C11.936 10.1514 12.7829 9.30462 12.7829 8.26V4.55842C12.7829 3.51381 11.936 2.66699 10.8914 2.66699ZM11.4373 8.33473C11.4373 8.6357 11.1924 8.8805 10.8915 8.8805C10.5906 8.8805 10.3457 8.6357 10.3457 8.33473V4.48362C10.3457 4.18265 10.5906 3.93785 10.8915 3.93785C11.1924 3.93785 11.4373 4.18273 11.4373 4.48362V8.33473Z" />
</svg>
